<?xml version="1.0" encoding="UTF-8"?>
<svg width="40px" height="40px" viewBox="0 0 40 40" version="1.1" xmlns="http://www.w3.org/2000/svg" xmlns:xlink="http://www.w3.org/1999/xlink">
    <!-- Generator: Sketch 45.1 (43504) - http://www.bohemiancoding.com/sketch -->
    <title>icon_github</title>
    <desc>Created with Sketch.</desc>
    <defs>
        <polygon id="path-1" points="9.98375186e-20 0 9.98375186e-20 40 40 40 40 8.94478905e-15"></polygon>
    </defs>
    <g id="Symbols" stroke="none" stroke-width="1" fill="none" fill-rule="evenodd">
        <g id="icon_github">
            <g id="Group">
                <mask id="mask-2" fill="white">
                    <use xlink:href="#path-1"></use>
                </mask>
                <g id="Clip-2"></g>
                <path d="M19.9987723,0 C8.95518723,0 0,9.180841 0,20.5080325 C0,29.5667644 5.72989564,37.2520838 13.6783303,39.9649197 C14.6789441,40.1524893 15.043585,39.5192845 15.043585,38.9754584 C15.043585,38.4895398 15.0263966,37.1992118 15.0165746,35.4884257 C9.45365255,36.7271406 8.27992634,32.7390829 8.27992634,32.7390829 C7.37016575,30.3699149 6.05893186,29.7404866 6.05893186,29.7404866 C4.24309392,28.4677826 6.19643953,28.4929597 6.19643953,28.4929597 C8.20380602,28.6389871 9.25966851,30.6065799 9.25966851,30.6065799 C11.043585,33.7398739 13.9398404,32.834756 15.0804174,32.3110717 C15.262124,30.9854957 15.7777778,30.0816367 16.3499079,29.5692821 C11.9091467,29.051892 7.24002455,27.2920105 7.24002455,19.4342278 C7.24002455,17.1959808 8.01964395,15.3656034 9.29895641,13.9317657 C9.0926949,13.4131168 8.40638428,11.3284503 9.4941682,8.50483502 C9.4941682,8.50483502 11.1737262,7.95345584 14.9944751,10.6071255 C16.5893186,10.1514194 18.300798,9.92482524 20.0012277,9.91601324 C21.699202,9.92482524 23.4106814,10.1514194 25.0079804,10.6071255 C28.8262738,7.95345584 30.5021486,8.50483502 30.5021486,8.50483502 C31.5936157,11.3284503 30.9073051,13.4131168 30.7010436,13.9317657 C31.9828115,15.3656034 32.75752,17.1959808 32.75752,19.4342278 C32.75752,27.3121522 28.0810313,29.0455978 23.6255371,29.552917 C24.3437692,30.1861218 24.9834254,31.4374252 24.9834254,33.3508872 C24.9834254,36.091418 24.9588705,38.303229 24.9588705,38.9754584 C24.9588705,39.5243199 25.3186004,40.1625602 26.3339472,39.962402 C34.2737876,37.2445306 40,29.5642467 40,20.5080325 C40,9.180841 31.0448128,0 19.9987723,0" id="Fill-1" fill="#4A4A4A" mask="url(#mask-2)"></path>
            </g>
        </g>
    </g>
</svg>