<?xml version="1.0" standalone="no"?>
<!DOCTYPE svg PUBLIC "-//W3C//DTD SVG 20010904//EN"
 "http://www.w3.org/TR/2001/REC-SVG-20010904/DTD/svg10.dtd">
<svg version="1.0" xmlns="http://www.w3.org/2000/svg"
 width="401.000000pt" height="401.000000pt" viewBox="0 0 401.000000 401.000000"
 preserveAspectRatio="xMidYMid meet">
<metadata>
Created by potrace 1.11, written by Peter Selinger 2001-2013
</metadata>
<g transform="translate(0.000000,401.000000) scale(0.100000,-0.100000)"
fill="#000000" stroke="none">
<path d="M1870 3675 c-8 -2 -45 -7 -82 -10 l-67 -6 -3 -337 c-3 -336 -4 -337
-31 -417 -46 -138 -110 -238 -227 -356 -96 -97 -114 -111 -210 -157 -175 -85
-224 -94 -583 -99 l-307 -5 -8 -27 c-9 -35 -9 -468 1 -504 l7 -27 303 0 c386
0 512 20 746 116 365 152 671 480 808 869 61 174 65 212 70 591 l5 352 -39 6
c-48 7 -363 17 -383 11z"/>
<path d="M2940 2275 c-456 -77 -876 -394 -1070 -807 -115 -247 -149 -448 -150
-890 l0 -217 38 -8 c48 -10 446 -10 495 0 l37 8 0 262 c0 363 23 496 115 662
78 140 225 277 377 352 159 79 254 93 625 93 l252 0 8 58 c10 74 10 348 0 435
l-9 67 -321 -1 c-209 -1 -348 -5 -397 -14z"/>
</g>
</svg>
