<svg id="Layer_2" data-name="Layer 2" xmlns="http://www.w3.org/2000/svg" xmlns:xlink="http://www.w3.org/1999/xlink" viewBox="0 0 176 172.7"><defs><style>.cls-1,.cls-6{fill:none;}.cls-2{fill:#231f20;}.cls-3{fill:url(#Stipple_Fine);}.cls-4{fill:#fdbf89;}.cls-5{opacity:0.1;}.cls-6{stroke:#000;stroke-miterlimit:10;}.cls-7{fill:#4d4d4d;opacity:0.2;}.cls-8{fill:#c66;}.cls-9{fill:#f2f2f2;}.cls-10{fill:gray;}</style><pattern id="Stipple_Fine" data-name="Stipple Fine" width="72" height="72" patternTransform="translate(4.39 20.1)" patternUnits="userSpaceOnUse" viewBox="0 0 72 72"><rect class="cls-1" width="72" height="72"/><path class="cls-2" d="M56.43,72.69a0.35,0.35,0,0,1-.26-0.11,0.38,0.38,0,0,1-.11-0.27A0.36,0.36,0,0,1,56.17,72a0.4,0.4,0,0,1,.53,0,0.36,0.36,0,0,1,.11.26,0.38,0.38,0,0,1-.11.27A0.37,0.37,0,0,1,56.43,72.69Z"/><path class="cls-2" d="M3.75,72.13A0.35,0.35,0,0,1,3.48,72a0.35,0.35,0,0,1-.11-0.26,0.36,0.36,0,0,1,.11-0.26,0.39,0.39,0,0,1,.53,0,0.36,0.36,0,0,1,.11.26A0.39,0.39,0,0,1,4,72,0.36,0.36,0,0,1,3.75,72.13Z"/><path class="cls-2" d="M18.56,72.13A0.36,0.36,0,0,1,18.29,72a0.36,0.36,0,0,1-.11-0.26,0.34,0.34,0,0,1,.12-0.26,0.38,0.38,0,0,1,.53,0,0.4,0.4,0,0,1,.1.26,0.39,0.39,0,0,1-.1.27A0.4,0.4,0,0,1,18.56,72.13Z"/><path class="cls-2" d="M40.31,72.31A0.35,0.35,0,0,1,40,72.2a0.34,0.34,0,0,1-.1-0.26,0.35,0.35,0,0,1,.1-0.26,0.39,0.39,0,0,1,.54,0,0.37,0.37,0,0,1,.1.27,0.39,0.39,0,0,1-.11.27A0.34,0.34,0,0,1,40.31,72.31Z"/><path class="cls-2" d="M12.93,69.88a0.32,0.32,0,0,1-.26-0.12,0.35,0.35,0,0,1-.11-0.26,0.38,0.38,0,0,1,.11-0.27,0.4,0.4,0,0,1,.53,0,0.35,0.35,0,0,1,.11.26,0.39,0.39,0,0,1-.11.27A0.37,0.37,0,0,1,12.93,69.88Z"/><path class="cls-2" d="M1.12,69.69a0.39,0.39,0,0,1-.27-0.11,0.42,0.42,0,0,1-.1-0.26A0.39,0.39,0,0,1,.86,69a0.4,0.4,0,0,1,.53,0,0.39,0.39,0,0,1,.11.27,0.38,0.38,0,0,1-.11.26A0.38,0.38,0,0,1,1.12,69.69Z"/><path class="cls-2" d="M10.5,68.38a0.35,0.35,0,0,1-.27-0.12A0.39,0.39,0,0,1,10.12,68a0.36,0.36,0,0,1,.11-0.26,0.39,0.39,0,0,1,.53,0,0.36,0.36,0,0,1,.11.26,0.39,0.39,0,0,1-.11.27A0.36,0.36,0,0,1,10.5,68.38Z"/><path class="cls-2" d="M19.68,67.25a0.38,0.38,0,0,1-.26-0.11,0.36,0.36,0,0,1-.11-0.26,0.37,0.37,0,0,1,.11-0.27,0.38,0.38,0,0,1,.64.27,0.36,0.36,0,0,1-.11.26A0.39,0.39,0,0,1,19.68,67.25Z"/><path class="cls-2" d="M3.75,72.13A0.35,0.35,0,0,1,3.48,72a0.39,0.39,0,0,1-.11-0.26,0.36,0.36,0,0,1,.11-0.26,0.4,0.4,0,0,1,.53,0,0.33,0.33,0,0,1,.11.26A0.39,0.39,0,0,1,4,72,0.36,0.36,0,0,1,3.75,72.13Z"/><path class="cls-2" d="M7.12,65.75a0.39,0.39,0,0,1-.27-0.11,0.4,0.4,0,0,1-.1-0.26,0.37,0.37,0,0,1,.11-0.27,0.4,0.4,0,0,1,.53,0,0.37,0.37,0,0,1,.11.27,0.36,0.36,0,0,1-.11.26A0.38,0.38,0,0,1,7.12,65.75Z"/><path class="cls-2" d="M24.56,70.63a0.36,0.36,0,0,1-.27-0.12,0.34,0.34,0,0,1-.1-0.26A0.33,0.33,0,0,1,24.3,70a0.39,0.39,0,0,1,.53,0,0.36,0.36,0,0,1,.11.26A0.38,0.38,0,0,1,24.56,70.63Z"/><path class="cls-2" d="M27,71.94a0.34,0.34,0,0,1-.27-0.12,0.32,0.32,0,0,1-.11-0.25,0.34,0.34,0,0,1,.12-0.27,0.38,0.38,0,0,1,.52,0,0.35,0.35,0,0,1,.11.27,0.38,0.38,0,0,1-.11.26A0.36,0.36,0,0,1,27,71.94Z"/><path class="cls-2" d="M29.06,67.63a0.4,0.4,0,0,1-.27-0.12,0.38,0.38,0,0,1-.1-0.26A0.36,0.36,0,0,1,28.8,67a0.38,0.38,0,0,1,.53,0,0.4,0.4,0,0,1,.1.26,0.38,0.38,0,0,1-.1.27A0.38,0.38,0,0,1,29.06,67.63Z"/><path class="cls-2" d="M40.87,66.69a0.36,0.36,0,0,1-.26-0.11,0.37,0.37,0,0,1,0-.53,0.39,0.39,0,0,1,.53,0,0.38,0.38,0,0,1,.11.26A0.38,0.38,0,0,1,40.87,66.69Z"/><path class="cls-2" d="M49.31,68A0.39,0.39,0,0,1,49,67.89a0.41,0.41,0,0,1-.11-0.26,0.4,0.4,0,0,1,.12-0.27,0.38,0.38,0,0,1,.52,0,0.36,0.36,0,0,1,.12.27,0.38,0.38,0,0,1-.11.26A0.39,0.39,0,0,1,49.31,68Z"/><path class="cls-2" d="M35.06,66.13A0.39,0.39,0,0,1,34.79,66a0.41,0.41,0,0,1-.1-0.27,0.39,0.39,0,0,1,.11-0.27,0.4,0.4,0,0,1,.53,0,0.39,0.39,0,0,1,.11.26,0.4,0.4,0,0,1-.12.27A0.35,0.35,0,0,1,35.06,66.13Z"/><path class="cls-2" d="M24.56,66.13A0.36,0.36,0,0,1,24.29,66a0.34,0.34,0,0,1-.1-0.26,0.39,0.39,0,0,1,.11-0.27,0.4,0.4,0,0,1,.53,0,0.39,0.39,0,0,1,.11.26A0.38,0.38,0,0,1,24.56,66.13Z"/><path class="cls-2" d="M15.18,66.13A0.34,0.34,0,0,1,14.92,66a0.35,0.35,0,0,1-.11-0.26,0.36,0.36,0,0,1,.11-0.26,0.38,0.38,0,0,1,.53,0,0.36,0.36,0,0,1,.11.26A0.38,0.38,0,0,1,15.18,66.13Z"/><path class="cls-2" d="M43.87,63.5a0.38,0.38,0,0,1-.26-0.11,0.34,0.34,0,0,1-.11-0.26,0.37,0.37,0,0,1,.11-0.27,0.38,0.38,0,0,1,.64.27,0.32,0.32,0,0,1-.12.26A0.35,0.35,0,0,1,43.87,63.5Z"/><path class="cls-2" d="M46.68,71.75a0.36,0.36,0,0,1-.26-0.11,0.36,0.36,0,0,1-.11-0.26,0.38,0.38,0,1,1,.75,0,0.36,0.36,0,0,1-.11.26A0.37,0.37,0,0,1,46.68,71.75Z"/><path class="cls-2" d="M18.56,72.13A0.36,0.36,0,0,1,18.29,72a0.39,0.39,0,0,1-.11-0.26,0.34,0.34,0,0,1,.12-0.26,0.38,0.38,0,0,1,.53,0,0.4,0.4,0,0,1,.1.26,0.39,0.39,0,0,1-.11.27A0.36,0.36,0,0,1,18.56,72.13Z"/><path class="cls-2" d="M32.43,70.82a0.38,0.38,0,0,1-.26-0.11,0.38,0.38,0,0,1-.11-0.27,0.36,0.36,0,0,1,.11-0.26,0.39,0.39,0,0,1,.53,0,0.4,0.4,0,0,1,.11.27A0.38,0.38,0,0,1,32.43,70.82Z"/><path class="cls-2" d="M40.31,72.32A0.4,0.4,0,0,1,40,72.2a0.37,0.37,0,1,1,.64-0.26A0.38,0.38,0,0,1,40.31,72.32Z"/><path class="cls-2" d="M50.62,48.5a0.38,0.38,0,0,1-.37-0.37,0.38,0.38,0,1,1,.75,0,0.34,0.34,0,0,1-.11.26A0.38,0.38,0,0,1,50.62,48.5Z"/><path class="cls-2" d="M58.31,48.13A0.36,0.36,0,0,1,58,48a0.39,0.39,0,0,1-.11-0.26,0.34,0.34,0,0,1,.12-0.26,0.39,0.39,0,0,1,.53,0,0.36,0.36,0,0,1,.11.26,0.4,0.4,0,0,1-.12.27A0.36,0.36,0,0,1,58.31,48.13Z"/><path class="cls-2" d="M62.81,48.69a0.39,0.39,0,0,1-.27-0.11,0.38,0.38,0,0,1-.11-0.26A0.39,0.39,0,0,1,62.54,48a0.4,0.4,0,0,1,.54,0,0.39,0.39,0,0,1,.11.27,0.38,0.38,0,0,1-.11.26A0.39,0.39,0,0,1,62.81,48.69Z"/><path class="cls-2" d="M66.93,71a0.35,0.35,0,0,1-.26-0.11,0.36,0.36,0,0,1-.11-0.26,0.38,0.38,0,0,1,.11-0.27,0.4,0.4,0,0,1,.53,0,0.37,0.37,0,0,1,.11.27,0.36,0.36,0,0,1-.11.26A0.37,0.37,0,0,1,66.93,71Z"/><path class="cls-2" d="M52.31,61.25A0.39,0.39,0,0,1,52,61.14a0.36,0.36,0,0,1-.11-0.26A0.39,0.39,0,0,1,52,60.61a0.4,0.4,0,0,1,.54,0,0.38,0.38,0,0,1,.1.27,0.35,0.35,0,0,1-.1.26A0.39,0.39,0,0,1,52.31,61.25Z"/><path class="cls-2" d="M70.5,55.25a0.38,0.38,0,0,1-.27-0.11,0.36,0.36,0,0,1-.11-0.26,0.34,0.34,0,0,1,.12-0.27,0.39,0.39,0,0,1,.53,0,0.38,0.38,0,0,1,.1.26A0.38,0.38,0,0,1,70.5,55.25Z"/><path class="cls-2" d="M71.06,68.38a0.4,0.4,0,0,1-.27-0.12,0.38,0.38,0,0,1-.1-0.26,0.39,0.39,0,0,1,.11-0.27,0.4,0.4,0,0,1,.53,0,0.39,0.39,0,0,1,.11.26A0.38,0.38,0,0,1,71.06,68.38Z"/><path class="cls-2" d="M63.94,53.19a0.37,0.37,0,0,1-.27-0.11,0.34,0.34,0,0,1-.11-0.26,0.37,0.37,0,0,1,.64-0.27,0.37,0.37,0,0,1,.11.27A0.37,0.37,0,0,1,63.94,53.19Z"/><path class="cls-2" d="M61.87,71.94a0.39,0.39,0,0,1-.27-0.11,0.4,0.4,0,0,1-.1-0.26,0.39,0.39,0,0,1,.11-0.27,0.4,0.4,0,0,1,.53,0,0.39,0.39,0,0,1,.11.27,0.33,0.33,0,0,1-.12.26A0.35,0.35,0,0,1,61.87,71.94Z"/><path class="cls-2" d="M53.62,52.82a0.37,0.37,0,0,1-.26-0.12,0.35,0.35,0,0,1-.11-0.26,0.38,0.38,0,0,1,.11-0.27,0.39,0.39,0,0,1,.53,0,0.38,0.38,0,0,1,.11.27,0.4,0.4,0,0,1-.11.27A0.43,0.43,0,0,1,53.62,52.82Z"/><path class="cls-2" d="M51.75,67.07a0.39,0.39,0,0,1-.27-0.12,0.35,0.35,0,0,1-.11-0.26,0.4,0.4,0,0,1,.11-0.27,0.38,0.38,0,0,1,.53,0,0.36,0.36,0,0,1,.11.26A0.39,0.39,0,0,1,52,67,0.41,0.41,0,0,1,51.75,67.07Z"/><path class="cls-2" d="M57.37,55.44a0.35,0.35,0,0,1-.26-0.11A0.36,0.36,0,0,1,57,55.07a0.39,0.39,0,0,1,.11-0.27,0.4,0.4,0,0,1,.53,0,0.39,0.39,0,0,1,.11.27,0.38,0.38,0,0,1-.11.26A0.38,0.38,0,0,1,57.37,55.44Z"/><path class="cls-2" d="M60.94,56.19a0.37,0.37,0,0,1-.27-0.11,0.36,0.36,0,0,1-.11-0.26,0.35,0.35,0,0,1,.11-0.27,0.4,0.4,0,0,1,.53,0,0.37,0.37,0,0,1,.11.27,0.38,0.38,0,0,1-.11.26A0.36,0.36,0,0,1,60.94,56.19Z"/><path class="cls-2" d="M56.43,69.69a0.38,0.38,0,0,1-.37-0.37,0.38,0.38,0,1,1,.75,0,0.38,0.38,0,0,1-.11.26A0.4,0.4,0,0,1,56.43,69.69Z"/><path class="cls-2" d="M61.31,63.5A0.39,0.39,0,0,1,61,63.39a0.38,0.38,0,0,1-.11-0.26,0.36,0.36,0,0,1,.12-0.27,0.38,0.38,0,0,1,.52,0,0.36,0.36,0,0,1,.12.27,0.38,0.38,0,0,1-.11.26A0.39,0.39,0,0,1,61.31,63.5Z"/><path class="cls-2" d="M57.94,61.82a0.38,0.38,0,0,1-.27-0.12,0.36,0.36,0,0,1-.11-0.26,0.4,0.4,0,0,1,.11-0.27,0.38,0.38,0,0,1,.52,0,0.37,0.37,0,0,1,.12.27,0.36,0.36,0,0,1-.11.26A0.35,0.35,0,0,1,57.94,61.82Z"/><path class="cls-2" d="M67.12,65.19a0.39,0.39,0,0,1-.27-0.11,0.38,0.38,0,0,1-.1-0.26,0.37,0.37,0,0,1,.11-0.27,0.4,0.4,0,0,1,.53,0,0.39,0.39,0,0,1,.11.27,0.33,0.33,0,0,1-.12.26A0.35,0.35,0,0,1,67.12,65.19Z"/><path class="cls-2" d="M69.19,60.32a0.38,0.38,0,0,1-.27-0.12,0.35,0.35,0,0,1-.11-0.26,0.37,0.37,0,0,1,.64-0.26,0.35,0.35,0,0,1,.11.26,0.36,0.36,0,0,1-.12.27A0.36,0.36,0,0,1,69.19,60.32Z"/><path class="cls-2" d="M65.06,59.19a0.38,0.38,0,0,1-.38-0.38,0.38,0.38,0,0,1,.12-0.26,0.4,0.4,0,0,1,.53,0,0.41,0.41,0,0,1,.11.26A0.38,0.38,0,0,1,65.06,59.19Z"/><path class="cls-2" d="M1.69,56.94a0.35,0.35,0,0,1-.27-0.11,0.38,0.38,0,0,1-.11-0.26,0.39,0.39,0,0,1,.11-0.27,0.4,0.4,0,0,1,.53,0,0.39,0.39,0,0,1,.11.27A0.38,0.38,0,0,1,1.69,56.94Z"/><path class="cls-2" d="M29.25,62.75a0.38,0.38,0,0,1-.38-0.37A0.36,0.36,0,0,1,29,62.11a0.38,0.38,0,0,1,.52,0,0.35,0.35,0,0,1,.11.27,0.39,0.39,0,0,1-.11.27A0.4,0.4,0,0,1,29.25,62.75Z"/><path class="cls-2" d="M15.56,51.69a0.39,0.39,0,0,1-.27-0.11,0.36,0.36,0,0,1,0-.53,0.39,0.39,0,0,1,.52,0,0.39,0.39,0,0,1,.12.28,0.38,0.38,0,0,1-.11.26A0.39,0.39,0,0,1,15.56,51.69Z"/><path class="cls-2" d="M4.87,61.25a0.38,0.38,0,0,1-.37-0.37,0.39,0.39,0,0,1,.11-0.27,0.4,0.4,0,0,1,.53,0,0.39,0.39,0,0,1,.11.27,0.36,0.36,0,0,1-.11.26A0.38,0.38,0,0,1,4.87,61.25Z"/><path class="cls-2" d="M18.75,54.5a0.38,0.38,0,0,1-.27-0.11,0.35,0.35,0,0,1-.1-0.26,0.42,0.42,0,0,1,.1-0.27,0.4,0.4,0,0,1,.53,0,0.39,0.39,0,0,1,.11.27,0.38,0.38,0,0,1-.11.26A0.36,0.36,0,0,1,18.75,54.5Z"/><path class="cls-2" d="M9.75,51.13A0.35,0.35,0,0,1,9.48,51a0.35,0.35,0,0,1-.11-0.26,0.39,0.39,0,0,1,.12-0.27,0.38,0.38,0,0,1,.52,0,0.35,0.35,0,0,1,.12.26A0.4,0.4,0,0,1,10,51,0.36,0.36,0,0,1,9.75,51.13Z"/><path class="cls-2" d="M18.56,48.5a0.39,0.39,0,0,1-.27-0.11,0.38,0.38,0,0,1-.11-0.26,0.36,0.36,0,0,1,.12-0.27,0.4,0.4,0,0,1,.53,0,0.43,0.43,0,0,1,.1.27,0.4,0.4,0,0,1-.1.26A0.4,0.4,0,0,1,18.56,48.5Z"/><path class="cls-2" d="M21.37,56.75a0.39,0.39,0,0,1-.27-0.11,0.42,0.42,0,0,1-.1-0.26,0.39,0.39,0,0,1,.11-0.27,0.4,0.4,0,0,1,.53,0,0.39,0.39,0,0,1,.11.27,0.36,0.36,0,0,1-.11.26A0.38,0.38,0,0,1,21.37,56.75Z"/><path class="cls-2" d="M20.62,60.32a0.4,0.4,0,0,1-.27-0.12,0.4,0.4,0,0,1-.1-0.26,0.36,0.36,0,0,1,.11-0.26,0.38,0.38,0,0,1,.53,0,0.36,0.36,0,0,1,.11.26,0.4,0.4,0,0,1-.11.27A0.38,0.38,0,0,1,20.62,60.32Z"/><path class="cls-2" d="M7.12,55.82a0.4,0.4,0,0,1-.27-0.12,0.4,0.4,0,0,1-.1-0.26,0.37,0.37,0,0,1,.64-0.26,0.35,0.35,0,0,1,.11.26,0.4,0.4,0,0,1-.11.27A0.38,0.38,0,0,1,7.12,55.82Z"/><path class="cls-2" d="M13.31,60.69A0.39,0.39,0,0,1,13,60.58a0.41,0.41,0,0,1-.11-0.27A0.34,0.34,0,0,1,13.05,60a0.4,0.4,0,0,1,.53,0,0.36,0.36,0,0,1,.11.26,0.38,0.38,0,0,1-.12.27A0.35,0.35,0,0,1,13.31,60.69Z"/><path class="cls-2" d="M15,57.31a0.38,0.38,0,0,1-.27-0.11,0.36,0.36,0,0,1-.11-0.26,0.39,0.39,0,0,1,.12-0.27,0.37,0.37,0,0,1,.52,0,0.35,0.35,0,0,1,.11.26,0.36,0.36,0,0,1-.11.27A0.39,0.39,0,0,1,15,57.31Z"/><path class="cls-2" d="M30.18,50.19a0.38,0.38,0,0,1-.26-0.11,0.38,0.38,0,0,1,0-.53,0.39,0.39,0,0,1,.53,0,0.38,0.38,0,0,1,.11.26A0.38,0.38,0,0,1,30.18,50.19Z"/><path class="cls-2" d="M36,57.69a0.38,0.38,0,0,1-.38-0.37A0.36,0.36,0,0,1,35.74,57a0.37,0.37,0,0,1,.52,0,0.37,0.37,0,0,1,.11.27,0.34,0.34,0,0,1-.11.26A0.36,0.36,0,0,1,36,57.69Z"/><path class="cls-2" d="M42.37,59.75A0.38,0.38,0,0,1,42,59.38a0.37,0.37,0,0,1,.11-0.27,0.38,0.38,0,0,1,.64.27,0.38,0.38,0,0,1-.11.26A0.38,0.38,0,0,1,42.37,59.75Z"/><path class="cls-2" d="M46.68,53a0.43,0.43,0,0,1-.26-0.1,0.4,0.4,0,0,1-.11-0.27,0.38,0.38,0,1,1,.75,0,0.36,0.36,0,0,1-.11.26A0.39,0.39,0,0,1,46.68,53Z"/><path class="cls-2" d="M46.87,59a0.36,0.36,0,0,1-.26-0.11,0.34,0.34,0,0,1-.11-0.26,0.37,0.37,0,0,1,.11-0.27,0.38,0.38,0,0,1,.53,0,0.37,0.37,0,0,1,.11.27,0.32,0.32,0,0,1-.12.26A0.35,0.35,0,0,1,46.87,59Z"/><path class="cls-2" d="M28.68,52.63a0.38,0.38,0,0,1-.26-0.11,0.37,0.37,0,0,1-.11-0.27A0.36,0.36,0,0,1,28.42,52,0.39,0.39,0,0,1,29,52a0.36,0.36,0,0,1,.11.26A0.38,0.38,0,0,1,28.68,52.63Z"/><path class="cls-2" d="M30.75,57.88a0.38,0.38,0,0,1-.38-0.38,0.36,0.36,0,0,1,.11-0.26,0.39,0.39,0,0,1,.53,0A0.37,0.37,0,0,1,30.75,57.88Z"/><path class="cls-2" d="M26.06,56a0.36,0.36,0,0,1-.26-0.11,0.35,0.35,0,0,1-.11-0.26,0.38,0.38,0,0,1,.1-0.27,0.4,0.4,0,0,1,.54,0,0.39,0.39,0,0,1,.11.27,0.36,0.36,0,0,1-.12.26A0.35,0.35,0,0,1,26.06,56Z"/><path class="cls-2" d="M39.18,55.63a0.36,0.36,0,0,1-.26-0.11,0.38,0.38,0,0,1-.11-0.27A0.36,0.36,0,0,1,38.92,55a0.39,0.39,0,0,1,.53,0,0.36,0.36,0,0,1,.11.26,0.39,0.39,0,0,1-.11.27A0.37,0.37,0,0,1,39.18,55.63Z"/><path class="cls-2" d="M42.93,49.82a0.39,0.39,0,0,1-.26-0.12,0.36,0.36,0,0,1-.11-0.26,0.4,0.4,0,0,1,.11-0.27,0.39,0.39,0,0,1,.53,0,0.38,0.38,0,0,1,0,.54A0.43,0.43,0,0,1,42.93,49.82Z"/><path class="cls-2" d="M44.06,55.63a0.36,0.36,0,0,1-.26-0.11,0.35,0.35,0,0,1-.11-0.27,0.35,0.35,0,0,1,.1-0.26,0.37,0.37,0,0,1,.64.26,0.43,0.43,0,0,1-.1.27A0.4,0.4,0,0,1,44.06,55.63Z"/><path class="cls-2" d="M26.43,47.94a0.38,0.38,0,0,1-.26-0.11,0.36,0.36,0,0,1-.11-0.26,0.37,0.37,0,0,1,.11-0.27,0.38,0.38,0,0,1,.64.27,0.38,0.38,0,0,1-.11.26A0.39,0.39,0,0,1,26.43,47.94Z"/><path class="cls-2" d="M49.31,52.44a0.38,0.38,0,0,1-.38-0.37,0.4,0.4,0,0,1,.12-0.28,0.41,0.41,0,0,1,.53,0,0.42,0.42,0,0,1,.11.27,0.37,0.37,0,0,1-.12.26A0.35,0.35,0,0,1,49.31,52.44Z"/><path class="cls-2" d="M35.62,48.5a0.38,0.38,0,0,1-.37-0.37,0.37,0.37,0,0,1,.11-0.27,0.4,0.4,0,0,1,.53,0,0.39,0.39,0,0,1,.11.27,0.38,0.38,0,0,1-.11.26A0.38,0.38,0,0,1,35.62,48.5Z"/><path class="cls-2" d="M36,52.44a0.38,0.38,0,0,1-.38-0.37,0.36,0.36,0,0,1,.12-0.27,0.37,0.37,0,0,1,.52,0,0.37,0.37,0,0,1,.11.27,0.34,0.34,0,0,1-.11.26A0.36,0.36,0,0,1,36,52.44Z"/><path class="cls-2" d="M2.81,49.07a0.4,0.4,0,0,1-.27-0.12,0.35,0.35,0,0,1-.11-0.26,0.4,0.4,0,0,1,.12-0.27A0.38,0.38,0,1,1,2.81,49.07Z"/><path class="cls-2" d="M5.25,48.13A0.38,0.38,0,0,1,5,48a0.35,0.35,0,0,1-.11-0.26A0.36,0.36,0,0,1,5,47.49a0.39,0.39,0,0,1,.53,0,0.37,0.37,0,0,1,.12.26,0.4,0.4,0,0,1-.12.27A0.36,0.36,0,0,1,5.25,48.13Z"/><path class="cls-2" d="M3.37,2.19A0.38,0.38,0,0,1,3,1.82a0.38,0.38,0,1,1,.75,0,0.36,0.36,0,0,1-.11.26A0.38,0.38,0,0,1,3.37,2.19Z"/><path class="cls-2" d="M10.12,6.5a0.39,0.39,0,0,1-.27-0.11,0.38,0.38,0,0,1-.1-0.26,0.39,0.39,0,0,1,.11-0.27,0.4,0.4,0,0,1,.53,0,0.39,0.39,0,0,1,.11.27,0.32,0.32,0,0,1-.12.26A0.35,0.35,0,0,1,10.12,6.5Z"/><path class="cls-2" d="M4.12,6.69a0.39,0.39,0,0,1-.27-0.11,0.4,0.4,0,0,1-.1-0.26A0.37,0.37,0,0,1,3.86,6a0.4,0.4,0,0,1,.53,0,0.37,0.37,0,0,1,.11.27,0.36,0.36,0,0,1-.11.26A0.38,0.38,0,0,1,4.12,6.69Z"/><path class="cls-2" d="M22.5,4.07a0.39,0.39,0,0,1-.27-0.12,0.39,0.39,0,0,1-.11-0.26,0.4,0.4,0,0,1,.11-0.27,0.39,0.39,0,0,1,.53,0,0.36,0.36,0,0,1,.11.27,0.39,0.39,0,0,1-.11.27A0.41,0.41,0,0,1,22.5,4.07Z"/><path class="cls-2" d="M31.12,1.44a0.38,0.38,0,0,1-.26-0.11,0.38,0.38,0,0,1-.11-0.27A0.36,0.36,0,0,1,30.86.8a0.39,0.39,0,0,1,.53,0,0.38,0.38,0,0,1,.11.26A0.38,0.38,0,0,1,31.12,1.44Z"/><path class="cls-2" d="M46.87,5a0.38,0.38,0,0,1-.26-0.11,0.36,0.36,0,0,1-.11-0.26,0.39,0.39,0,0,1,.11-0.27,0.37,0.37,0,0,1,.52,0,0.36,0.36,0,0,1,0,.53A0.38,0.38,0,0,1,46.87,5Z"/><path class="cls-2" d="M33.75,5.57a0.39,0.39,0,0,1-.27-0.12,0.39,0.39,0,0,1-.11-0.26,0.39,0.39,0,0,1,.12-0.27,0.37,0.37,0,0,1,.52,0,0.35,0.35,0,0,1,.11.26,0.39,0.39,0,0,1-.11.27A0.41,0.41,0,0,1,33.75,5.57Z"/><path class="cls-2" d="M22.87,7.44a0.36,0.36,0,0,1-.37-0.38,0.36,0.36,0,0,1,.11-0.26,0.39,0.39,0,0,1,.53,0,0.38,0.38,0,0,1,.11.26,0.34,0.34,0,0,1-.12.27A0.35,0.35,0,0,1,22.87,7.44Z"/><path class="cls-2" d="M13.31,2.75A0.39,0.39,0,0,1,13,2.64a0.36,0.36,0,0,1,0-.53,0.4,0.4,0,0,1,.53,0,0.39,0.39,0,0,1,.11.27,0.36,0.36,0,0,1-.11.26A0.39,0.39,0,0,1,13.31,2.75Z"/><path class="cls-2" d="M15.94,5.56a0.35,0.35,0,0,1-.27-0.11,0.35,0.35,0,0,1-.11-0.26,0.37,0.37,0,0,1,.64-0.26,0.35,0.35,0,0,1,.11.26,0.39,0.39,0,0,1-.11.27A0.42,0.42,0,0,1,15.94,5.56Z"/><path class="cls-2" d="M41.25,7.63A0.38,0.38,0,0,1,41,7.52a0.4,0.4,0,0,1-.11-0.27A0.38,0.38,0,0,1,41,7a0.39,0.39,0,0,1,.54,0,0.4,0.4,0,0,1,.1.26A0.38,0.38,0,0,1,41.25,7.63Z"/><path class="cls-2" d="M7.5,3.88a0.35,0.35,0,0,1-.27-0.12A0.39,0.39,0,0,1,7.12,3.5a0.36,0.36,0,0,1,.11-0.26,0.38,0.38,0,0,1,.53,0,0.36,0.36,0,0,1,.11.26,0.39,0.39,0,0,1-.11.27A0.36,0.36,0,0,1,7.5,3.88Z"/><path class="cls-2" d="M29.62,7.81a0.33,0.33,0,0,1-.26-0.11,0.35,0.35,0,0,1-.11-0.26,0.4,0.4,0,0,1,.11-0.27,0.38,0.38,0,0,1,.53,0,0.38,0.38,0,0,1,0,.54A0.37,0.37,0,0,1,29.62,7.81Z"/><path class="cls-2" d="M10.69,9.13A0.34,0.34,0,0,1,10.42,9a0.35,0.35,0,0,1-.11-0.26,0.36,0.36,0,0,1,.11-0.26,0.38,0.38,0,0,1,.53,0,0.36,0.36,0,0,1,.11.26A0.39,0.39,0,0,1,11,9,0.38,0.38,0,0,1,10.69,9.13Z"/><path class="cls-2" d="M34.5,9.32a0.39,0.39,0,0,1-.27-0.12,0.39,0.39,0,0,1-.11-0.26,0.39,0.39,0,0,1,.12-0.27,0.38,0.38,0,0,1,.52,0,0.35,0.35,0,0,1,.11.26,0.39,0.39,0,0,1-.11.27A0.41,0.41,0,0,1,34.5,9.32Z"/><path class="cls-2" d="M16.68,1.07A0.37,0.37,0,0,1,16.42.95,0.35,0.35,0,0,1,16.31.69,0.4,0.4,0,0,1,16.42.42a0.4,0.4,0,0,1,.53,0,0.4,0.4,0,0,1,.11.27A0.39,0.39,0,0,1,17,1,0.43,0.43,0,0,1,16.68,1.07Z"/><path class="cls-2" d="M36.93,1.63a0.36,0.36,0,0,1-.26-0.11,0.38,0.38,0,0,1-.11-0.27A0.36,0.36,0,0,1,36.67,1a0.39,0.39,0,0,1,.53,0,0.36,0.36,0,0,1,.11.26,0.4,0.4,0,0,1-.11.27A0.37,0.37,0,0,1,36.93,1.63Z"/><path class="cls-2" d="M41.81,3.69a0.39,0.39,0,0,1-.27-0.11,0.35,0.35,0,0,1-.1-0.26A0.36,0.36,0,0,1,41.54,3a0.4,0.4,0,0,1,.54,0,0.36,0.36,0,0,1,.1.27,0.4,0.4,0,0,1-.1.26A0.39,0.39,0,0,1,41.81,3.69Z"/><path class="cls-2" d="M45,8.75a0.38,0.38,0,0,1-.27-0.11,0.36,0.36,0,0,1-.11-0.26,0.38,0.38,0,1,1,.75,0A0.38,0.38,0,0,1,45,8.75Z"/><path class="cls-2" d="M12.93,24.88a0.34,0.34,0,0,1-.26-0.12,0.35,0.35,0,0,1-.11-0.26,0.36,0.36,0,0,1,.11-0.26,0.38,0.38,0,0,1,.53,0,0.36,0.36,0,0,1,.11.26A0.38,0.38,0,0,1,12.93,24.88Z"/><path class="cls-2" d="M1.12,24.69a0.39,0.39,0,0,1-.27-0.11,0.42,0.42,0,0,1-.1-0.26A0.38,0.38,0,0,1,1.39,24a0.39,0.39,0,0,1,.11.27,0.38,0.38,0,0,1-.11.26A0.38,0.38,0,0,1,1.12,24.69Z"/><path class="cls-2" d="M5.44,30.69a0.37,0.37,0,0,1-.27-0.11,0.38,0.38,0,0,1-.11-0.26A0.39,0.39,0,0,1,5.17,30a0.4,0.4,0,0,1,.53,0,0.39,0.39,0,0,1,.11.27A0.38,0.38,0,0,1,5.44,30.69Z"/><path class="cls-2" d="M3.37,37.07A0.38,0.38,0,0,1,3.11,37a0.38,0.38,0,0,1,0-.54,0.39,0.39,0,0,1,.53,0A0.38,0.38,0,0,1,3.37,37.07Z"/><path class="cls-2" d="M10.12,41.38a0.36,0.36,0,0,1-.27-0.12,0.39,0.39,0,0,1,0-.53,0.4,0.4,0,0,1,.53,0,0.35,0.35,0,0,1,.11.26A0.38,0.38,0,0,1,10.12,41.38Z"/><path class="cls-2" d="M4.12,41.57a0.4,0.4,0,0,1-.27-0.12,0.38,0.38,0,0,1-.1-0.26,0.4,0.4,0,0,1,.11-0.27,0.39,0.39,0,0,1,.53,0,0.4,0.4,0,0,1,.11.27,0.36,0.36,0,0,1-.12.27A0.38,0.38,0,0,1,4.12,41.57Z"/><path class="cls-2" d="M10.5,23.38a0.35,0.35,0,0,1-.27-0.12A0.35,0.35,0,0,1,10.12,23a0.36,0.36,0,0,1,.11-0.26,0.38,0.38,0,0,1,.53,0,0.33,0.33,0,0,1,.11.26,0.39,0.39,0,0,1-.11.27A0.36,0.36,0,0,1,10.5,23.38Z"/><path class="cls-2" d="M19.68,22.25a0.36,0.36,0,0,1-.26-0.11,0.34,0.34,0,0,1-.11-0.26,0.38,0.38,0,1,1,.75,0,0.36,0.36,0,0,1-.11.26A0.37,0.37,0,0,1,19.68,22.25Z"/><path class="cls-2" d="M3.75,27.13A0.35,0.35,0,0,1,3.48,27a0.35,0.35,0,0,1-.11-0.26,0.39,0.39,0,0,1,.12-0.27,0.38,0.38,0,0,1,.52,0A0.37,0.37,0,0,1,4,27,0.36,0.36,0,0,1,3.75,27.13Z"/><path class="cls-2" d="M7.12,20.75a0.39,0.39,0,0,1-.27-0.11,0.4,0.4,0,0,1-.1-0.26,0.39,0.39,0,0,1,.11-0.27,0.4,0.4,0,0,1,.53,0,0.39,0.39,0,0,1,.11.27,0.36,0.36,0,0,1-.11.26A0.38,0.38,0,0,1,7.12,20.75Z"/><path class="cls-2" d="M24.56,25.63a0.36,0.36,0,0,1-.27-0.12,0.38,0.38,0,0,1-.1-0.26A0.36,0.36,0,0,1,24.3,25a0.39,0.39,0,0,1,.53,0,0.36,0.36,0,0,1,.11.26,0.4,0.4,0,0,1-.12.27A0.35,0.35,0,0,1,24.56,25.63Z"/><path class="cls-2" d="M27,26.94a0.34,0.34,0,0,1-.27-0.12,0.32,0.32,0,0,1-.11-0.25,0.4,0.4,0,0,1,.12-0.28,0.4,0.4,0,0,1,.52,0,0.37,0.37,0,0,1,.11.27,0.38,0.38,0,0,1-.11.26A0.36,0.36,0,0,1,27,26.94Z"/><path class="cls-2" d="M7.5,33.88a0.35,0.35,0,0,1-.27-0.12,0.35,0.35,0,0,1-.11-0.26,0.4,0.4,0,0,1,.11-0.27,0.4,0.4,0,0,1,.53,0,0.4,0.4,0,0,1,.11.27,0.39,0.39,0,0,1-.11.27A0.36,0.36,0,0,1,7.5,33.88Z"/><path class="cls-2" d="M22.5,38.94a0.38,0.38,0,0,1-.27-0.11,0.39,0.39,0,0,1-.11-0.27,0.36,0.36,0,0,1,.11-0.26,0.4,0.4,0,0,1,.53,0,0.38,0.38,0,0,1,.11.26,0.37,0.37,0,0,1-.11.27A0.36,0.36,0,0,1,22.5,38.94Z"/><path class="cls-2" d="M31.12,36.31a0.35,0.35,0,0,1-.26-0.1,0.39,0.39,0,0,1-.11-0.27,0.36,0.36,0,0,1,.11-0.26,0.38,0.38,0,0,1,.53,0,0.4,0.4,0,0,1,.11.27,0.39,0.39,0,0,1-.11.27A0.37,0.37,0,0,1,31.12,36.31Z"/><path class="cls-2" d="M29.06,22.63a0.36,0.36,0,0,1-.27-0.12,0.38,0.38,0,0,1-.1-0.26A0.36,0.36,0,0,1,28.8,22a0.4,0.4,0,0,1,.53,0,0.35,0.35,0,0,1,.1.26,0.38,0.38,0,0,1-.1.27A0.38,0.38,0,0,1,29.06,22.63Z"/><path class="cls-2" d="M40.87,21.69a0.36,0.36,0,0,1-.26-0.11,0.35,0.35,0,0,1-.11-0.27A0.35,0.35,0,0,1,40.61,21a0.39,0.39,0,0,1,.53,0,0.36,0.36,0,0,1,.11.26,0.34,0.34,0,0,1-.12.27A0.35,0.35,0,0,1,40.87,21.69Z"/><path class="cls-2" d="M26.81,33.69a0.36,0.36,0,0,1-.27-0.12,0.35,0.35,0,0,1-.1-0.26A0.37,0.37,0,0,1,26.55,33a0.4,0.4,0,0,1,.53,0,0.38,0.38,0,0,1,.11.26,0.36,0.36,0,0,1-.12.27A0.35,0.35,0,0,1,26.81,33.69Z"/><path class="cls-2" d="M46.87,39.88a0.36,0.36,0,0,1-.26-0.11,0.39,0.39,0,0,1-.11-0.27,0.36,0.36,0,0,1,.11-0.26,0.39,0.39,0,0,1,.53,0,0.36,0.36,0,0,1,.11.26A0.38,0.38,0,0,1,46.87,39.88Z"/><path class="cls-2" d="M33.75,40.44a0.38,0.38,0,0,1-.27-0.11,0.36,0.36,0,0,1,0-.53,0.39,0.39,0,0,1,.52,0,0.35,0.35,0,0,1,.11.27,0.38,0.38,0,0,1-.11.26A0.36,0.36,0,0,1,33.75,40.44Z"/><path class="cls-2" d="M22.87,42.32a0.4,0.4,0,0,1-.27-0.12,0.37,0.37,0,0,1,.54-0.52,0.35,0.35,0,0,1,.11.26A0.38,0.38,0,0,1,22.87,42.32Z"/><path class="cls-2" d="M13.31,37.63A0.36,0.36,0,0,1,13,37.51a0.39,0.39,0,0,1-.11-0.26A0.34,0.34,0,0,1,13.05,37a0.39,0.39,0,0,1,.53,0,0.36,0.36,0,0,1,.11.26,0.4,0.4,0,0,1-.12.27A0.35,0.35,0,0,1,13.31,37.63Z"/><path class="cls-2" d="M15.94,40.44a0.37,0.37,0,0,1-.27-0.11,0.38,0.38,0,0,1-.11-0.26,0.39,0.39,0,0,1,.11-0.27,0.4,0.4,0,0,1,.53,0,0.39,0.39,0,0,1,.11.27A0.38,0.38,0,0,1,15.94,40.44Z"/><path class="cls-2" d="M38.75,42.88a0.38,0.38,0,0,1-.38-0.38,0.36,0.36,0,0,1,.11-0.26,0.39,0.39,0,0,1,.53,0,0.36,0.36,0,0,1,.11.26,0.39,0.39,0,0,1-.11.27A0.36,0.36,0,0,1,38.75,42.88Z"/><path class="cls-2" d="M48.93,33.32a0.39,0.39,0,0,1-.26-0.12,0.35,0.35,0,0,1-.11-0.26,0.35,0.35,0,0,1,.12-0.27,0.37,0.37,0,0,1,.52,0,0.35,0.35,0,0,1,.11.26,0.39,0.39,0,0,1-.11.27A0.43,0.43,0,0,1,48.93,33.32Z"/><path class="cls-2" d="M30.18,31.25a0.38,0.38,0,0,1-.26-0.11,0.36,0.36,0,0,1-.11-0.26,0.38,0.38,0,1,1,.75,0,0.36,0.36,0,0,1-.11.26A0.37,0.37,0,0,1,30.18,31.25Z"/><path class="cls-2" d="M49.31,23a0.38,0.38,0,0,1-.38-0.37,0.38,0.38,0,0,1,.12-0.27,0.4,0.4,0,0,1,.53,0,0.42,0.42,0,0,1,.11.27,0.36,0.36,0,0,1-.12.26A0.36,0.36,0,0,1,49.31,23Z"/><path class="cls-2" d="M35.06,21.13A0.4,0.4,0,0,1,34.79,21a0.43,0.43,0,0,1-.1-0.27,0.39,0.39,0,0,1,.11-0.27,0.4,0.4,0,0,1,.53,0,0.39,0.39,0,0,1,.11.26,0.4,0.4,0,0,1-.12.27A0.36,0.36,0,0,1,35.06,21.13Z"/><path class="cls-2" d="M7.5,38.75a0.38,0.38,0,0,1-.27-0.11,0.36,0.36,0,0,1-.11-0.26,0.39,0.39,0,0,1,.11-0.27,0.4,0.4,0,0,1,.53,0,0.39,0.39,0,0,1,.11.27,0.33,0.33,0,0,1-.11.26A0.36,0.36,0,0,1,7.5,38.75Z"/><path class="cls-2" d="M24.56,21.13A0.36,0.36,0,0,1,24.29,21a0.34,0.34,0,0,1-.1-0.26,0.35,0.35,0,0,1,.1-0.26,0.4,0.4,0,0,1,.54,0,0.36,0.36,0,0,1,.11.26,0.4,0.4,0,0,1-.11.27A0.38,0.38,0,0,1,24.56,21.13Z"/><path class="cls-2" d="M15.18,21.13A0.32,0.32,0,0,1,14.92,21a0.35,0.35,0,0,1-.11-0.26,0.36,0.36,0,0,1,.11-0.26,0.38,0.38,0,0,1,.53,0,0.36,0.36,0,0,1,.11.26,0.39,0.39,0,0,1-.11.27A0.37,0.37,0,0,1,15.18,21.13Z"/><path class="cls-2" d="M29.62,42.69a0.38,0.38,0,0,1-.26-0.11,0.35,0.35,0,0,1-.11-0.27A0.36,0.36,0,0,1,29.36,42a0.39,0.39,0,0,1,.53,0,0.38,0.38,0,0,1,.11.26,0.34,0.34,0,0,1-.12.27A0.35,0.35,0,0,1,29.62,42.69Z"/><path class="cls-2" d="M10.69,44a0.35,0.35,0,0,1-.27-0.11,0.36,0.36,0,0,1-.11-0.26,0.38,0.38,0,0,1,.11-0.27,0.4,0.4,0,0,1,.53,0,0.39,0.39,0,0,1,.11.27,0.36,0.36,0,0,1-.11.26A0.38,0.38,0,0,1,10.69,44Z"/><path class="cls-2" d="M43.87,18.5a0.38,0.38,0,0,1-.26-0.11,0.34,0.34,0,0,1-.11-0.26,0.37,0.37,0,0,1,.11-0.27,0.38,0.38,0,0,1,.64.27,0.32,0.32,0,0,1-.12.26A0.35,0.35,0,0,1,43.87,18.5Z"/><path class="cls-2" d="M34.5,44.19a0.38,0.38,0,0,1-.27-0.11,0.36,0.36,0,0,1-.11-0.26,0.37,0.37,0,0,1,.11-0.27,0.38,0.38,0,0,1,.64.27,0.38,0.38,0,0,1-.11.26A0.36,0.36,0,0,1,34.5,44.19Z"/><path class="cls-2" d="M44.75,25.38a0.35,0.35,0,0,1-.27-0.12A0.39,0.39,0,0,1,44.37,25a0.36,0.36,0,0,1,.11-0.26,0.38,0.38,0,0,1,.53,0,0.34,0.34,0,0,1,.12.26,0.4,0.4,0,0,1-.12.27A0.36,0.36,0,0,1,44.75,25.38Z"/><path class="cls-2" d="M14.62,30.32a0.4,0.4,0,0,1-.27-0.12,0.38,0.38,0,0,1-.1-0.26,0.4,0.4,0,0,1,.11-0.27,0.39,0.39,0,0,1,.53,0,0.38,0.38,0,0,1,0,.54A0.38,0.38,0,0,1,14.62,30.32Z"/><path class="cls-2" d="M10.69,30.69a0.35,0.35,0,0,1-.27-0.11,0.36,0.36,0,0,1-.11-0.26A0.39,0.39,0,0,1,10.42,30,0.4,0.4,0,0,1,11,30a0.39,0.39,0,0,1,.11.27,0.36,0.36,0,0,1-.11.26A0.38,0.38,0,0,1,10.69,30.69Z"/><path class="cls-2" d="M20.81,32.94a0.39,0.39,0,0,1-.27-0.11,0.39,0.39,0,0,1-.11-0.27,0.34,0.34,0,0,1,.12-0.26,0.4,0.4,0,0,1,.53,0A0.38,0.38,0,0,1,20.81,32.94Z"/><path class="cls-2" d="M21.75,29.56a0.38,0.38,0,0,1-.27-0.11,0.35,0.35,0,0,1-.11-0.26,0.39,0.39,0,0,1,.12-0.27,0.37,0.37,0,0,1,.52,0,0.35,0.35,0,0,1,.11.26,0.39,0.39,0,0,1-.11.27A0.35,0.35,0,0,1,21.75,29.56Z"/><path class="cls-2" d="M18.56,27.13A0.36,0.36,0,0,1,18.29,27a0.35,0.35,0,0,1-.11-0.26,0.34,0.34,0,0,1,.12-0.26,0.38,0.38,0,0,1,.53,0,0.4,0.4,0,0,1,.1.26,0.43,0.43,0,0,1-.1.27A0.4,0.4,0,0,1,18.56,27.13Z"/><path class="cls-2" d="M16.68,35.94a0.38,0.38,0,0,1-.37-0.38,0.38,0.38,0,0,1,.11-0.26,0.39,0.39,0,0,1,.53,0,0.38,0.38,0,0,1,.11.26,0.37,0.37,0,0,1-.11.27A0.39,0.39,0,0,1,16.68,35.94Z"/><path class="cls-2" d="M45.93,30.32a0.39,0.39,0,0,1-.26-0.12,0.35,0.35,0,0,1-.11-0.26,0.35,0.35,0,0,1,.12-0.27,0.37,0.37,0,0,1,.52,0,0.35,0.35,0,0,1,.11.26,0.39,0.39,0,0,1-.11.27A0.43,0.43,0,0,1,45.93,30.32Z"/><path class="cls-2" d="M32.43,25.82a0.38,0.38,0,0,1-.26-0.11A0.37,0.37,0,1,1,32.43,25.82Z"/><path class="cls-2" d="M38.62,30.69a0.38,0.38,0,0,1-.26-0.11,0.37,0.37,0,0,1,0-.53,0.39,0.39,0,0,1,.53,0,0.38,0.38,0,0,1,.11.26A0.38,0.38,0,0,1,38.62,30.69Z"/><path class="cls-2" d="M40.31,27.32A0.4,0.4,0,0,1,40,27.21a0.39,0.39,0,0,1-.1-0.27,0.37,0.37,0,0,1,.1-0.27,0.4,0.4,0,0,1,.54,0,0.43,0.43,0,0,1,.1.27,0.39,0.39,0,0,1-.11.27A0.36,0.36,0,0,1,40.31,27.32Z"/><path class="cls-2" d="M36.93,36.5a0.38,0.38,0,0,1-.26-0.11,0.34,0.34,0,0,1-.11-0.26,0.37,0.37,0,0,1,.11-0.27,0.4,0.4,0,0,1,.53,0,0.37,0.37,0,0,1,.11.27,0.34,0.34,0,0,1-.11.26A0.39,0.39,0,0,1,36.93,36.5Z"/><path class="cls-2" d="M41.81,38.57a0.38,0.38,0,0,1-.37-0.38,0.39,0.39,0,0,1,.11-0.27,0.41,0.41,0,0,1,.53,0,0.43,0.43,0,0,1,.1.27,0.39,0.39,0,0,1-.1.27A0.4,0.4,0,0,1,41.81,38.57Z"/><path class="cls-2" d="M42.93,34.44a0.38,0.38,0,0,1-.26-0.11,0.34,0.34,0,0,1-.11-0.26,0.37,0.37,0,0,1,.11-0.27,0.39,0.39,0,0,1,.53,0,0.37,0.37,0,0,1,.11.27,0.34,0.34,0,0,1-.11.26A0.39,0.39,0,0,1,42.93,34.44Z"/><path class="cls-2" d="M45,43.63a0.38,0.38,0,0,1-.27-0.11,0.43,0.43,0,0,1-.11-0.27A0.39,0.39,0,0,1,44.74,43a0.38,0.38,0,0,1,.52,0,0.35,0.35,0,0,1,.11.26,0.39,0.39,0,0,1-.11.27A0.36,0.36,0,0,1,45,43.63Z"/><path class="cls-2" d="M49.87,43.44a0.38,0.38,0,0,1-.26-0.11,0.34,0.34,0,0,1-.11-0.26,0.35,0.35,0,0,1,.11-0.27,0.39,0.39,0,0,1,.53,0,0.37,0.37,0,0,1,.11.27,0.32,0.32,0,0,1-.12.26A0.35,0.35,0,0,1,49.87,43.44Z"/><path class="cls-2" d="M54.56,45.32a0.39,0.39,0,0,1-.38-0.38,0.37,0.37,0,0,1,.12-0.27,0.4,0.4,0,0,1,.53,0,0.36,0.36,0,0,1,.11.26,0.4,0.4,0,0,1-.12.27A0.39,0.39,0,0,1,54.56,45.32Z"/><path class="cls-2" d="M55.5,20.19a0.38,0.38,0,0,1-.27-0.11,0.38,0.38,0,0,1-.11-0.26,0.38,0.38,0,1,1,.75,0,0.34,0.34,0,0,1-.11.26A0.36,0.36,0,0,1,55.5,20.19Z"/><path class="cls-2" d="M53.81,38.75a0.37,0.37,0,0,1-.27-0.64,0.4,0.4,0,0,1,.53,0,0.35,0.35,0,0,1,0,.53A0.36,0.36,0,0,1,53.81,38.75Z"/><path class="cls-2" d="M60.37,45.69a0.39,0.39,0,0,1-.27-0.11,0.43,0.43,0,0,1-.1-0.27A0.36,0.36,0,0,1,60.11,45a0.39,0.39,0,0,1,.53,0A0.38,0.38,0,0,1,60.37,45.69Z"/><path class="cls-2" d="M55.31,32A0.39,0.39,0,0,1,55,31.89a0.36,0.36,0,0,1,0-.53,0.38,0.38,0,0,1,.52,0,0.36,0.36,0,0,1,0,.53A0.4,0.4,0,0,1,55.31,32Z"/><path class="cls-2" d="M61.31,27.69a0.4,0.4,0,0,1-.38-0.37A0.39,0.39,0,0,1,61,27a0.4,0.4,0,0,1,.54,0,0.39,0.39,0,0,1,.11.27,0.38,0.38,0,0,1-.11.26A0.4,0.4,0,0,1,61.31,27.69Z"/><path class="cls-2" d="M66,44.38a0.4,0.4,0,0,1-.27-0.12A0.35,0.35,0,0,1,65.62,44a0.39,0.39,0,0,1,.12-0.27,0.37,0.37,0,0,1,.52,0,0.35,0.35,0,0,1,.11.26,0.39,0.39,0,0,1-.11.27A0.36,0.36,0,0,1,66,44.38Z"/><path class="cls-2" d="M72.19,45.5a0.35,0.35,0,0,1-.27-0.11,0.36,0.36,0,0,1-.11-0.26,0.37,0.37,0,0,1,.11-0.27,0.4,0.4,0,0,1,.53,0,0.39,0.39,0,0,1,.11.27,0.36,0.36,0,0,1-.11.26A0.36,0.36,0,0,1,72.19,45.5Z"/><path class="cls-2" d="M67.69,29.75a0.35,0.35,0,0,1-.27-0.11,0.36,0.36,0,0,1-.11-0.26,0.37,0.37,0,0,1,.11-0.27,0.39,0.39,0,0,1,.53,0,0.33,0.33,0,0,1,.11.26,0.38,0.38,0,0,1-.11.26A0.35,0.35,0,0,1,67.69,29.75Z"/><path class="cls-2" d="M72,23a0.38,0.38,0,0,1-.27-0.11,0.36,0.36,0,0,1,0-.53,0.38,0.38,0,0,1,.52,0,0.37,0.37,0,0,1,.11.27,0.38,0.38,0,0,1-.11.26A0.36,0.36,0,0,1,72,23Z"/><path class="cls-2" d="M72.19,29a0.35,0.35,0,0,1-.27-0.11,0.36,0.36,0,0,1-.11-0.26,0.33,0.33,0,0,1,.12-0.27,0.37,0.37,0,0,1,.63.27,0.36,0.36,0,0,1-.11.26A0.36,0.36,0,0,1,72.19,29Z"/><path class="cls-2" d="M72.19,39.88a0.36,0.36,0,0,1-.27-0.12,0.35,0.35,0,0,1-.11-0.26,0.36,0.36,0,0,1,.12-0.27,0.39,0.39,0,0,1,.52,0,0.35,0.35,0,0,1,.11.26,0.39,0.39,0,0,1-.11.27A0.36,0.36,0,0,1,72.19,39.88Z"/><path class="cls-2" d="M54,22.63a0.35,0.35,0,0,1-.27-0.12,0.36,0.36,0,0,1-.11-0.26A0.39,0.39,0,0,1,53.74,22a0.37,0.37,0,0,1,.52,0,0.35,0.35,0,0,1,.11.26,0.4,0.4,0,0,1-.11.27A0.36,0.36,0,0,1,54,22.63Z"/><path class="cls-2" d="M52.87,13.44a0.35,0.35,0,0,1-.26-0.11,0.36,0.36,0,0,1-.11-0.26,0.37,0.37,0,0,1,.11-0.27,0.38,0.38,0,0,1,.64.27,0.38,0.38,0,0,1-.11.26A0.38,0.38,0,0,1,52.87,13.44Z"/><path class="cls-2" d="M50.81,34.82a0.36,0.36,0,0,1-.26-0.11,0.35,0.35,0,0,1-.11-0.27,0.39,0.39,0,0,1,.1-0.27,0.4,0.4,0,0,1,.54,0,0.35,0.35,0,0,1,.1.26,0.38,0.38,0,0,1-.1.27A0.4,0.4,0,0,1,50.81,34.82Z"/><path class="cls-2" d="M58.75,30.88a0.35,0.35,0,0,1-.27-0.12,0.39,0.39,0,0,1-.11-0.26,0.36,0.36,0,0,1,.12-0.27,0.39,0.39,0,0,1,.64.27,0.4,0.4,0,0,1-.12.27A0.36,0.36,0,0,1,58.75,30.88Z"/><path class="cls-2" d="M51.37,26a0.39,0.39,0,0,1-.27-0.11,0.38,0.38,0,0,1-.1-0.26,0.39,0.39,0,0,1,.11-0.27,0.4,0.4,0,0,1,.53,0,0.39,0.39,0,0,1,.11.27,0.32,0.32,0,0,1-.12.26A0.36,0.36,0,0,1,51.37,26Z"/><path class="cls-2" d="M56.25,8.57A0.39,0.39,0,0,1,56,8.45a0.39,0.39,0,0,1-.11-0.26A0.36,0.36,0,0,1,56,7.92a0.39,0.39,0,0,1,.53,0A0.38,0.38,0,0,1,56.25,8.57Z"/><path class="cls-2" d="M57.56,6.13A0.39,0.39,0,0,1,57.29,6a0.4,0.4,0,0,1-.11-0.27,0.36,0.36,0,0,1,.11-0.26,0.39,0.39,0,0,1,.54,0,0.35,0.35,0,0,1,.1.26,0.38,0.38,0,0,1-.1.27A0.38,0.38,0,0,1,57.56,6.13Z"/><path class="cls-2" d="M64.5,25.63a0.38,0.38,0,0,1-.27-0.12,0.34,0.34,0,0,1-.1-0.26,0.35,0.35,0,0,1,.1-0.26,0.39,0.39,0,0,1,.53,0,0.36,0.36,0,0,1,.11.27,0.39,0.39,0,0,1-.11.27A0.36,0.36,0,0,1,64.5,25.63Z"/><path class="cls-2" d="M69.56,10.63a0.4,0.4,0,0,1-.27-0.12,0.39,0.39,0,0,1-.11-0.26A0.36,0.36,0,0,1,69.29,10a0.39,0.39,0,0,1,.54,0,0.35,0.35,0,0,1,.1.26,0.37,0.37,0,0,1-.11.27A0.36,0.36,0,0,1,69.56,10.63Z"/><path class="cls-2" d="M66.93,2a0.36,0.36,0,0,1-.26-0.11,0.34,0.34,0,0,1-.11-0.26,0.38,0.38,0,0,1,.11-0.27,0.4,0.4,0,0,1,.53,0,0.39,0.39,0,0,1,.11.27,0.34,0.34,0,0,1-.11.26A0.39,0.39,0,0,1,66.93,2Z"/><path class="cls-2" d="M53.25,4.07A0.38,0.38,0,0,1,53,4a0.4,0.4,0,0,1-.11-0.27A0.36,0.36,0,0,1,53,3.43a0.37,0.37,0,0,1,.64.26,0.33,0.33,0,0,1-.11.26A0.34,0.34,0,0,1,53.25,4.07Z"/><path class="cls-2" d="M64.31,6.31A0.39,0.39,0,0,1,64,6.2a0.35,0.35,0,0,1-.11-0.26A0.4,0.4,0,0,1,64,5.67a0.4,0.4,0,0,1,.53,0,0.36,0.36,0,0,1,.11.27,0.43,0.43,0,0,1-.1.27A0.38,0.38,0,0,1,64.31,6.31Z"/><path class="cls-2" d="M68.25,19.81A0.38,0.38,0,0,1,68,19.7a0.36,0.36,0,0,1-.11-0.26A0.36,0.36,0,0,1,68,19.17a0.37,0.37,0,0,1,.52,0,0.35,0.35,0,0,1,.11.26,0.39,0.39,0,0,1-.11.27A0.38,0.38,0,0,1,68.25,19.81Z"/><path class="cls-2" d="M71.06,17.19a0.39,0.39,0,0,1-.27-0.11,0.42,0.42,0,0,1-.1-0.26,0.37,0.37,0,0,1,.11-0.27,0.4,0.4,0,0,1,.53,0,0.42,0.42,0,0,1,.11.27,0.38,0.38,0,0,1-.11.26A0.39,0.39,0,0,1,71.06,17.19Z"/><path class="cls-2" d="M61.87,2.94a0.39,0.39,0,0,1-.27-0.11,0.42,0.42,0,0,1-.1-0.26,0.39,0.39,0,0,1,.11-0.27,0.4,0.4,0,0,1,.53,0,0.39,0.39,0,0,1,.11.27,0.38,0.38,0,0,1-.11.26A0.38,0.38,0,0,1,61.87,2.94Z"/><path class="cls-2" d="M69.37,25.63a0.36,0.36,0,0,1-.27-0.12,0.38,0.38,0,0,1-.1-0.26A0.36,0.36,0,0,1,69.11,25a0.39,0.39,0,0,1,.53,0,0.36,0.36,0,0,1,.11.26,0.36,0.36,0,0,1-.12.27A0.34,0.34,0,0,1,69.37,25.63Z"/><path class="cls-2" d="M51.75,8.57a0.39,0.39,0,0,1-.27-0.12,0.35,0.35,0,0,1-.11-0.26,0.4,0.4,0,0,1,.11-0.27,0.38,0.38,0,0,1,.53,0,0.36,0.36,0,0,1,.11.26,0.39,0.39,0,0,1-.11.27A0.41,0.41,0,0,1,51.75,8.57Z"/><path class="cls-2" d="M51.75,17.94a0.38,0.38,0,0,1-.27-0.11,0.36,0.36,0,0,1,0-.53,0.37,0.37,0,0,1,.52,0,0.37,0.37,0,0,1,.11.27,0.34,0.34,0,0,1-.11.26A0.36,0.36,0,0,1,51.75,17.94Z"/><path class="cls-2" d="M65.62,41.94a0.36,0.36,0,0,1-.26-0.11,0.38,0.38,0,0,1-.11-0.26,0.37,0.37,0,0,1,.11-0.27,0.39,0.39,0,0,1,.53,0,0.35,0.35,0,0,1,.11.27,0.38,0.38,0,0,1-.11.26A0.38,0.38,0,0,1,65.62,41.94Z"/><path class="cls-2" d="M63.37,34.07a0.4,0.4,0,0,1-.27-0.12,0.38,0.38,0,0,1-.1-0.26,0.36,0.36,0,0,1,.11-0.26,0.38,0.38,0,0,1,.53,0,0.4,0.4,0,0,1,.11.27,0.36,0.36,0,0,1-.12.27A0.38,0.38,0,0,1,63.37,34.07Z"/><path class="cls-2" d="M59.81,40.07a0.37,0.37,0,0,1-.26-0.65,0.38,0.38,0,0,1,.64.27,0.4,0.4,0,0,1-.12.27A0.36,0.36,0,0,1,59.81,40.07Z"/><path class="cls-2" d="M68.44,35.75a0.35,0.35,0,0,1-.27-0.11,0.36,0.36,0,0,1-.11-0.26,0.37,0.37,0,0,1,.11-0.27,0.4,0.4,0,0,1,.53,0,0.39,0.39,0,0,1,.11.27,0.36,0.36,0,0,1-.11.26A0.36,0.36,0,0,1,68.44,35.75Z"/><path class="cls-2" d="M60.94,18.5a0.35,0.35,0,0,1-.27-0.11,0.36,0.36,0,0,1-.11-0.26,0.38,0.38,0,1,1,.75,0,0.36,0.36,0,0,1-.11.26A0.36,0.36,0,0,1,60.94,18.5Z"/><path class="cls-2" d="M61.31,22.44A0.36,0.36,0,0,1,61,22.32a0.34,0.34,0,0,1-.11-0.25,0.36,0.36,0,0,1,.12-0.27,0.4,0.4,0,0,1,.53,0,0.39,0.39,0,0,1,.11.27,0.36,0.36,0,0,1-.12.26A0.35,0.35,0,0,1,61.31,22.44Z"/><path class="cls-2" d="M63.56,12.32a0.43,0.43,0,0,1-.27-0.11,0.39,0.39,0,0,1-.11-0.27,0.36,0.36,0,0,1,.12-0.27,0.39,0.39,0,0,1,.53,0,0.35,0.35,0,0,1,.11.26,0.39,0.39,0,0,1-.11.27A0.4,0.4,0,0,1,63.56,12.32Z"/><path class="cls-2" d="M60.19,11.38a0.33,0.33,0,0,1-.27-0.12A0.35,0.35,0,0,1,59.81,11a0.36,0.36,0,0,1,.11-0.26,0.38,0.38,0,0,1,.53,0,0.36,0.36,0,0,1,.11.26,0.39,0.39,0,0,1-.11.27A0.36,0.36,0,0,1,60.19,11.38Z"/><path class="cls-2" d="M57.75,14.57a0.39,0.39,0,0,1-.27-0.12,0.35,0.35,0,0,1-.11-0.26,0.39,0.39,0,0,1,.12-0.27,0.38,0.38,0,0,1,.52,0,0.35,0.35,0,0,1,.11.26,0.36,0.36,0,0,1-.11.26A0.37,0.37,0,0,1,57.75,14.57Z"/><path class="cls-2" d="M66.56,16.44a0.39,0.39,0,0,1-.27-0.11,0.42,0.42,0,0,1-.1-0.26,0.36,0.36,0,0,1,.11-0.27,0.38,0.38,0,0,1,.52,0,0.36,0.36,0,0,1,0,.53A0.4,0.4,0,0,1,66.56,16.44Z"/><path class="cls-2" d="M56.43,0.69A0.35,0.35,0,0,1,56.17.58,0.38,0.38,0,0,1,56.06.31,0.36,0.36,0,0,1,56.17,0a0.4,0.4,0,0,1,.53,0,0.36,0.36,0,0,1,.11.26,0.38,0.38,0,0,1-.11.27A0.37,0.37,0,0,1,56.43.69Z"/><path class="cls-2" d="M45.75,47.19a0.38,0.38,0,0,1-.27-0.11,0.36,0.36,0,0,1,0-.53,0.37,0.37,0,0,1,.63.27,0.38,0.38,0,0,1-.11.26A0.4,0.4,0,0,1,45.75,47.19Z"/><path class="cls-2" d="M41.25,46.44A0.4,0.4,0,0,1,41,46.33a0.38,0.38,0,0,1-.11-0.27A0.38,0.38,0,0,1,41,45.8a0.39,0.39,0,0,1,.54,0,0.42,0.42,0,0,1,.1.26,0.38,0.38,0,0,1-.11.27A0.34,0.34,0,0,1,41.25,46.44Z"/><path class="cls-2" d="M9.75,12.32a0.39,0.39,0,0,1-.27-0.12,0.36,0.36,0,0,1-.11-0.26,0.4,0.4,0,0,1,.11-0.27,0.39,0.39,0,0,1,.53,0,0.41,0.41,0,0,1,.12.27,0.37,0.37,0,0,1-.12.26A0.34,0.34,0,0,1,9.75,12.32Z"/><path class="cls-2" d="M18.19,13.63a0.34,0.34,0,0,1-.27-0.12,0.35,0.35,0,0,1-.11-0.26A0.36,0.36,0,0,1,17.92,13a0.39,0.39,0,0,1,.53,0,0.36,0.36,0,0,1,.11.26,0.39,0.39,0,0,1-.11.27A0.38,0.38,0,0,1,18.19,13.63Z"/><path class="cls-2" d="M3.94,11.75a0.35,0.35,0,0,1-.27-0.11,0.36,0.36,0,0,1-.11-0.26,0.38,0.38,0,0,1,.11-0.27,0.4,0.4,0,0,1,.53,0,0.39,0.39,0,0,1,.11.27,0.36,0.36,0,0,1-.11.26A0.38,0.38,0,0,1,3.94,11.75Z"/><path class="cls-2" d="M15.56,17.38a0.36,0.36,0,0,1-.27-0.12A0.35,0.35,0,0,1,15.18,17a0.38,0.38,0,0,1,.65-0.26,0.39,0.39,0,0,1,.11.26A0.38,0.38,0,0,1,15.56,17.38Z"/><path class="cls-2" d="M1.31,16.44A0.39,0.39,0,0,1,1,16.33a0.36,0.36,0,0,1-.11-0.26,0.36,0.36,0,0,1,.12-0.27,0.38,0.38,0,0,1,.53,0,0.35,0.35,0,0,1,.11.26,0.36,0.36,0,0,1-.11.26A0.39,0.39,0,0,1,1.31,16.44Z"/><path class="cls-2" d="M9.19,17.94a0.37,0.37,0,0,1-.27-0.11,0.38,0.38,0,0,1-.11-0.26,0.39,0.39,0,0,1,.11-0.27,0.4,0.4,0,0,1,.53,0,0.39,0.39,0,0,1,.11.27A0.38,0.38,0,0,1,9.19,17.94Z"/><path class="cls-2" d="M24.37,10.82A0.38,0.38,0,0,1,24,10.44a0.38,0.38,0,1,1,.75,0,0.36,0.36,0,0,1-.11.26A0.39,0.39,0,0,1,24.37,10.82Z"/><path class="cls-2" d="M30.18,18.32a0.38,0.38,0,0,1-.26-0.11,0.4,0.4,0,0,1-.11-0.27,0.38,0.38,0,0,1,.11-0.27,0.4,0.4,0,0,1,.53,0,0.38,0.38,0,0,1,.11.27,0.36,0.36,0,0,1-.11.26A0.4,0.4,0,0,1,30.18,18.32Z"/><path class="cls-2" d="M40.87,13.63a0.36,0.36,0,0,1-.26-0.11,0.39,0.39,0,0,1,0-.54,0.4,0.4,0,0,1,.53,0,0.35,0.35,0,0,1,.11.26,0.36,0.36,0,0,1-.12.27A0.34,0.34,0,0,1,40.87,13.63Z"/><path class="cls-2" d="M24.25,14.88A0.35,0.35,0,0,1,24,14.76a0.34,0.34,0,0,1-.1-0.26,0.37,0.37,0,0,1,.63-0.26,0.35,0.35,0,0,1,.11.26,0.39,0.39,0,0,1-.11.27A0.36,0.36,0,0,1,24.25,14.88Z"/><path class="cls-2" d="M20.25,16.63a0.38,0.38,0,0,1-.38-0.38A0.39,0.39,0,0,1,20,16a0.38,0.38,0,0,1,.52,0,0.35,0.35,0,0,1,.11.26,0.39,0.39,0,0,1-.11.27A0.36,0.36,0,0,1,20.25,16.63Z"/><path class="cls-2" d="M33.37,16.25A0.38,0.38,0,0,1,33,15.88a0.38,0.38,0,1,1,.75,0,0.38,0.38,0,0,1-.11.26A0.38,0.38,0,0,1,33.37,16.25Z"/><path class="cls-2" d="M37.12,10.44a0.38,0.38,0,0,1-.26-0.11,0.36,0.36,0,0,1-.11-0.26,0.35,0.35,0,0,1,.11-0.27,0.39,0.39,0,0,1,.53,0,0.37,0.37,0,0,1,.11.27,0.38,0.38,0,0,1-.11.26A0.4,0.4,0,0,1,37.12,10.44Z"/><path class="cls-2" d="M38.25,16.25A0.38,0.38,0,0,1,38,16.14a0.36,0.36,0,0,1-.11-0.26,0.38,0.38,0,1,1,.75,0A0.38,0.38,0,0,1,38.25,16.25Z"/><path class="cls-2" d="M43.5,13.07a0.38,0.38,0,1,1,.37-0.38,0.36,0.36,0,0,1-.11.26A0.34,0.34,0,0,1,43.5,13.07Z"/><path class="cls-2" d="M30.18,13.07A0.38,0.38,0,0,1,29.92,13a0.38,0.38,0,1,1,.53,0A0.43,0.43,0,0,1,30.18,13.07Z"/><path class="cls-2" d="M14.81,44.57a0.4,0.4,0,0,1-.27-0.12,0.36,0.36,0,0,1-.11-0.26,0.37,0.37,0,0,1,.12-0.27,0.39,0.39,0,0,1,.53,0,0.36,0.36,0,0,1,.11.26A0.38,0.38,0,0,1,14.81,44.57Z"/><path class="cls-2" d="M3.75,0.13A0.35,0.35,0,0,1,3.48,0,0.35,0.35,0,0,1,3.37-.25,0.36,0.36,0,0,1,3.48-.51,0.39,0.39,0,0,1,4-.51a0.36,0.36,0,0,1,.11.26A0.39,0.39,0,0,1,4,0,0.36,0.36,0,0,1,3.75.13Z"/><path class="cls-2" d="M18.56,0.13A0.36,0.36,0,0,1,18.29,0a0.36,0.36,0,0,1-.11-0.26A0.34,0.34,0,0,1,18.3-.51a0.38,0.38,0,0,1,.53,0,0.4,0.4,0,0,1,.1.26,0.39,0.39,0,0,1-.1.27A0.4,0.4,0,0,1,18.56.13Z"/><path class="cls-2" d="M40.31,0.31A0.35,0.35,0,0,1,40,.2a0.34,0.34,0,0,1-.1-0.26A0.35,0.35,0,0,1,40-.32a0.39,0.39,0,0,1,.54,0,0.37,0.37,0,0,1,.1.27,0.39,0.39,0,0,1-.11.27A0.34,0.34,0,0,1,40.31.31Z"/><path class="cls-2" d="M56.43,72.69a0.35,0.35,0,0,1-.26-0.11,0.34,0.34,0,0,1-.11-0.26A0.37,0.37,0,0,1,56.17,72a0.4,0.4,0,0,1,.53,0,0.37,0.37,0,0,1,.11.27,0.34,0.34,0,0,1-.11.26A0.39,0.39,0,0,1,56.43,72.69Z"/><path class="cls-2" d="M0.19,45.5a0.35,0.35,0,0,1-.27-0.11,0.36,0.36,0,0,1-.11-0.26,0.37,0.37,0,0,1,.11-0.27,0.4,0.4,0,0,1,.53,0,0.39,0.39,0,0,1,.11.27,0.36,0.36,0,0,1-.11.26A0.36,0.36,0,0,1,.19,45.5Z"/><path class="cls-2" d="M0,23a0.38,0.38,0,0,1-.27-0.11,0.38,0.38,0,0,1-.11-0.26,0.38,0.38,0,0,1,.12-0.27,0.38,0.38,0,0,1,.52,0,0.37,0.37,0,0,1,.11.27,0.38,0.38,0,0,1-.11.26A0.36,0.36,0,0,1,0,23Z"/><path class="cls-2" d="M0.19,29a0.35,0.35,0,0,1-.27-0.11,0.36,0.36,0,0,1-.11-0.26,0.33,0.33,0,0,1,.12-0.27,0.38,0.38,0,0,1,.52,0,0.39,0.39,0,0,1,.11.27,0.36,0.36,0,0,1-.11.26A0.36,0.36,0,0,1,.19,29Z"/><path class="cls-2" d="M0.19,39.88a0.36,0.36,0,0,1-.27-0.12A0.35,0.35,0,0,1-.19,39.5a0.36,0.36,0,0,1,.12-0.27,0.39,0.39,0,0,1,.52,0,0.35,0.35,0,0,1,.11.26,0.39,0.39,0,0,1-.11.27A0.36,0.36,0,0,1,.19,39.88Z"/><path class="cls-2" d="M3.75,0.13A0.35,0.35,0,0,1,3.48,0,0.39,0.39,0,0,1,3.37-.25,0.36,0.36,0,0,1,3.48-.51,0.4,0.4,0,0,1,4-.51a0.33,0.33,0,0,1,.11.26A0.39,0.39,0,0,1,4,0,0.36,0.36,0,0,1,3.75.13Z"/><path class="cls-2" d="M18.56,0.13A0.36,0.36,0,0,1,18.29,0a0.39,0.39,0,0,1-.11-0.26A0.34,0.34,0,0,1,18.3-.51a0.38,0.38,0,0,1,.53,0,0.4,0.4,0,0,1,.1.26,0.39,0.39,0,0,1-.11.27A0.36,0.36,0,0,1,18.56.13Z"/><path class="cls-2" d="M40.31,0.32A0.4,0.4,0,0,1,40,.2a0.38,0.38,0,0,1-.1-0.26,0.39,0.39,0,0,1,.11-0.27,0.39,0.39,0,0,1,.53,0,0.38,0.38,0,0,1,.1.26,0.39,0.39,0,0,1-.11.27A0.39,0.39,0,0,1,40.31.32Z"/><path class="cls-2" d="M56.43,0.69A0.35,0.35,0,0,1,56.17.58,0.34,0.34,0,0,1,56.06.32,0.37,0.37,0,0,1,56.17,0a0.4,0.4,0,0,1,.53,0,0.37,0.37,0,0,1,.11.27,0.34,0.34,0,0,1-.11.26A0.39,0.39,0,0,1,56.43.69Z"/></pattern></defs><title>SelfCartoon copy</title><rect class="cls-3" width="176" height="172.7"/><polygon class="cls-4" points="103.44 141.59 69.77 141.59 71.77 111.59 101.44 111.59 103.44 141.59"/><path class="cls-5" d="M71.49,113.15l15.11,3.19,15.2-2.4,0.6,4.49a52.38,52.38,0,0,1-31.34,0Z"/><ellipse class="cls-4" cx="118.43" cy="79.59" rx="6.71" ry="3.87" transform="translate(22.21 184.95) rotate(-81.5)"/><ellipse class="cls-4" cx="56.37" cy="79.59" rx="3.87" ry="6.71" transform="translate(-11.15 9.21) rotate(-8.5)"/><path class="cls-4" d="M82.32,116.59H92.43a22.11,22.11,0,0,0,21.79-19.12l4.1-29.92c1.8-13.08-7.52-24-20.72-24H76.41C63.21,43.59,54,54.39,56,67.44L60.57,97.7A22.17,22.17,0,0,0,82.32,116.59Z"/><path d="M91.54,67.09a1.5,1.5,0,0,1-.66-2.85c0.53-.26,13-6.22,19.54.29a1.5,1.5,0,0,1-2.12,2.12c-5-5-16,.23-16.11.29A1.49,1.49,0,0,1,91.54,67.09Z"/><path d="M82.15,67.19a1.5,1.5,0,0,1-.75-0.2c-0.31-.18-7.31-4.06-14.3,0a1.5,1.5,0,1,1-1.51-2.59c8.53-5,17-.21,17.3,0A1.5,1.5,0,0,1,82.15,67.19Z"/><circle cx="72.37" cy="76.3" r="3.29"/><circle cx="101.63" cy="76.3" r="3.29"/><polygon points="56.6 74.42 62.77 65.26 66.27 49.59 81.11 47.26 98.94 47.92 110.61 52.5 112.94 64.19 117.77 73.92 119.11 67.55 116.61 46.59 100.44 28.76 67.47 35.7 57.77 49.92 54.94 64.26 56.6 74.42"/><rect class="cls-5" x="84.61" y="81.59" width="5" height="12"/><path class="cls-6" d="M110.54,70C106.18,69,99,68.22,93.67,71a4.94,4.94,0,0,0-2.55,5.44,18.6,18.6,0,0,0,2.67,6.76A4.82,4.82,0,0,0,96.58,85c2.62,0.61,8.76,1.62,13.81-.65A4.9,4.9,0,0,0,112.81,82a19.07,19.07,0,0,0,1.65-6.87A4.93,4.93,0,0,0,110.54,70Z"/><path class="cls-6" d="M64.58,70c4.36-.92,11.5-1.73,16.87,1A4.94,4.94,0,0,1,84,76.43a18.6,18.6,0,0,1-2.67,6.76A4.82,4.82,0,0,1,78.53,85c-2.62.61-8.76,1.62-13.81-.65A4.9,4.9,0,0,1,62.3,82a19.07,19.07,0,0,1-1.65-6.87A4.93,4.93,0,0,1,64.58,70Z"/><path class="cls-6" d="M84.11,74.5a10.42,10.42,0,0,1,6.9,0"/><path class="cls-7" d="M76.1,99.57l1.5,11.21A4.48,4.48,0,0,0,82,114.59H94.42a4.47,4.47,0,0,0,4.42-3.95L99.92,99.8a4.33,4.33,0,0,0-4.33-4.65l-15-.32A4.29,4.29,0,0,0,76.1,99.57Z"/><path class="cls-8" d="M79,99.59c0,4,4.07,7.5,9.08,7.5s9.08-3.5,9.08-7.5H79Z"/><polyline class="cls-9" points="33.6 263.59 34.85 263.59 33.6 273.59 14.61 273.59 12.86 263.59 14.32 263.59 14.3 200.59 28.72 143.35 65.13 127.15 70.23 121.78 78.99 132.68 87.89 136.88 96.29 134.03 103.65 122 108.16 126.74 147.23 144.2 159.36 200.83 159.32 261.59 160.6 261.59 159.35 270.59 140.6 270.59 139.6 261.59 140.6 261.59 137.49 208.85 130.44 192.46 135.35 285.89 97.7 301.47 89.56 277.44 87.38 301.59 37.48 289.41 43.24 189.9 37.51 205.78 33.6 263.59"/><polyline class="cls-10" points="33.6 263.59 34.85 263.59 33.6 273.59 14.61 273.59 12.86 263.59 14.32 263.59 14.3 200.59 28.72 143.35 65.13 127.15 70.23 121.78 78.99 132.68 87.89 136.88 96.29 134.03 103.65 122 108.16 126.74 147.23 144.2 159.36 200.83 159.32 261.59 160.6 261.59 159.35 270.59 140.6 270.59 139.6 261.59 140.6 261.59 137.49 208.85 130.44 192.46 135.35 285.89 97.7 301.47 89.56 277.44 87.38 301.59 37.48 289.41 43.24 189.9 37.51 205.78 33.6 263.59"/><polygon class="cls-5" points="103.65 122 96.29 134.03 103.11 139.19 108.16 126.74 103.65 122"/><path class="cls-5" d="M70.23,121.76l-5.1,5.34,7.72,11.59,6.14-6S70.1,122.14,70.23,121.76Z"/><polygon points="115.99 70.33 116.36 79.59 117.61 79.59 117.77 73.92 115.99 70.33"/><polygon points="56.64 74.42 57.17 79.59 58.6 79.59 57.62 72.09 56.64 74.42"/><polygon class="cls-5" points="90.61 261.59 90.61 137.59 83.61 137.59 83.61 261.84 96.7 300.47 102.35 298.06 90.61 261.59"/></svg>