<svg width="40" height="40" viewBox="0 0 40 40" fill="none" xmlns="http://www.w3.org/2000/svg">
<mask id="mask0" mask-type="alpha" maskUnits="userSpaceOnUse" x="0" y="0" width="40" height="40">
<path d="M0 0V40H40V0L0 0Z" fill="white"/>
</mask>
<g mask="url(#mask0)">
<path fill-rule="evenodd" clip-rule="evenodd" d="M19.9988 0C8.95519 0 0 9.18084 0 20.508C0 29.5668 5.7299 37.2521 13.6783 39.9649C14.6789 40.1525 15.0436 39.5193 15.0436 38.9755C15.0436 38.4895 15.0264 37.1992 15.0166 35.4884C9.45365 36.7271 8.27993 32.7391 8.27993 32.7391C7.37017 30.3699 6.05893 29.7405 6.05893 29.7405C4.24309 28.4678 6.19644 28.493 6.19644 28.493C8.20381 28.639 9.25967 30.6066 9.25967 30.6066C11.0436 33.7399 13.9398 32.8348 15.0804 32.3111C15.2621 30.9855 15.7778 30.0816 16.3499 29.5693C11.9091 29.0519 7.24002 27.292 7.24002 19.4342C7.24002 17.196 8.01964 15.3656 9.29896 13.9318C9.0927 13.4131 8.40638 11.3285 9.49417 8.50484C9.49417 8.50484 11.1737 7.95346 14.9945 10.6071C16.5893 10.1514 18.3008 9.92482 20.0012 9.91601C21.6992 9.92482 23.4107 10.1514 25.008 10.6071C28.8263 7.95346 30.5021 8.50484 30.5021 8.50484C31.5936 11.3285 30.9073 13.4131 30.701 13.9318C31.9828 15.3656 32.7575 17.196 32.7575 19.4342C32.7575 27.3122 28.081 29.0456 23.6255 29.5529C24.3438 30.1861 24.9834 31.4374 24.9834 33.3509C24.9834 36.0914 24.9589 38.3032 24.9589 38.9755C24.9589 39.5243 25.3186 40.1626 26.3339 39.9624C34.2738 37.2445 40 29.5642 40 20.508C40 9.18084 31.0448 0 19.9988 0Z" fill="#333333"/>
</g>
</svg>
