<?xml version="1.0" encoding="UTF-8"?>
<svg width="41px" height="40px" viewBox="0 0 41 40" version="1.1" xmlns="http://www.w3.org/2000/svg" xmlns:xlink="http://www.w3.org/1999/xlink">
    <!-- Generator: Sketch 45.1 (43504) - http://www.bohemiancoding.com/sketch -->
    <title>icon_codepen</title>
    <desc>Created with Sketch.</desc>
    <defs></defs>
    <g id="Symbols" stroke="none" stroke-width="1" fill="none" fill-rule="evenodd">
        <g id="icon_codepen" fill="#4A4A4A">
            <path d="M29.8280311,17.9320767 L22.3758473,12.9494959 L22.3758473,4.93066931 L35.8442275,13.9102046 L29.8280311,17.9320767 Z M32.9196491,20.0011536 L37.2202282,17.1245645 L37.2202282,22.8758969 L32.9196491,20.0011536 Z M22.3749245,27.0528113 L29.8271082,22.0683847 L35.8433046,26.0921025 L22.3749245,35.0697921 L22.3749245,27.0528113 Z M11.4859689,22.0683847 L18.9381527,27.0528113 L18.9381527,35.0697921 L5.47069541,26.0921025 L11.4859689,22.0683847 Z M8.3943509,20.0011536 L4.0937718,22.8768198 L4.0937718,17.1245645 L8.3943509,20.0011536 Z M18.9381527,12.9494959 L11.4859689,17.9339224 L5.47069541,13.9102046 L18.9381527,4.93066931 L18.9381527,12.9494959 Z M20.6565386,24.0664006 L14.5775869,20.0011536 L20.6565386,15.9359066 L26.7364131,20.0011536 L20.6565386,24.0664006 Z M40.6293139,13.6075029 C40.6200852,13.5595136 40.6108564,13.5115244 40.5988591,13.4635351 C40.5914762,13.4358489 40.5804017,13.4090857 40.5720959,13.3795538 C40.5582528,13.3371017 40.5453326,13.2964954 40.5287209,13.2549662 C40.5158007,13.2254343 40.5038034,13.1977482 40.4899603,13.1719078 C40.47058,13.1322243 40.4521226,13.0943866 40.4318195,13.0565489 C40.4152078,13.0297857 40.399519,13.0030224 40.3819844,12.977182 C40.3598355,12.94119 40.334918,12.9079667 40.3100005,12.8738205 C40.2906202,12.8489029 40.2712399,12.8239854 40.2509367,12.7990679 C40.2241735,12.7667674 40.1946416,12.7372355 40.1660326,12.7067808 C40.1429608,12.683709 40.1208119,12.6606372 40.0968173,12.6394112 C40.0663625,12.6098793 40.0331392,12.5831161 39.9999158,12.5572757 C39.9749983,12.5369725 39.9491579,12.5175922 39.9223946,12.4982119 C39.9131659,12.490829 39.9039372,12.483446 39.8937856,12.4788316 L21.6117101,0.288627921 C21.0339928,-0.0962093072 20.2827758,-0.0962093072 19.7059814,0.288627921 L1.42113723,12.476063 C1.41098565,12.483446 1.40267981,12.490829 1.3934511,12.4963662 C1.36668784,12.5157465 1.34084745,12.5351268 1.31500706,12.5563528 C1.2817837,12.5803475 1.24948322,12.6080336 1.2181056,12.6375655 C1.19503382,12.6578686 1.17196205,12.6809404 1.14981314,12.7040122 C1.12028127,12.7335441 1.09259514,12.7639988 1.06398613,12.798145 C1.04368297,12.8212168 1.02430268,12.8461343 1.00584526,12.8719747 C0.980004868,12.9061209 0.956010221,12.9402672 0.932938445,12.9762591 C0.916326766,13.0020995 0.899715087,13.0288628 0.884026279,13.0556261 C0.862800245,13.0934638 0.843419952,13.1313015 0.825885402,13.1691392 C0.812042337,13.1968253 0.800045013,13.2245115 0.787124818,13.2531205 C0.770513139,13.2937268 0.756670074,13.3361789 0.742827008,13.377708 C0.733598297,13.4072399 0.723446716,13.4349261 0.716986618,13.4626122 C0.704066424,13.5106015 0.695760584,13.5576679 0.686531874,13.6065801 C0.681917518,13.6305747 0.676380292,13.6554922 0.672688808,13.6804098 C0.662537226,13.7551623 0.657,13.828992 0.657,13.9055903 L0.657,26.0939483 C0.657,26.1687008 0.662537226,26.2443763 0.672688808,26.3182059 C0.676380292,26.3412777 0.681917518,26.368041 0.686531874,26.3911128 C0.695760584,26.4409478 0.704989295,26.4880142 0.716986618,26.5341578 C0.724369587,26.5636896 0.734521168,26.5904529 0.742827008,26.618139 C0.756670074,26.6624368 0.770513139,26.703966 0.787124818,26.7454952 C0.800045013,26.7731814 0.812042337,26.8008675 0.825885402,26.8294765 C0.844342824,26.8682371 0.862800245,26.9060748 0.884026279,26.9439125 C0.899715087,26.9706758 0.916326766,26.9965162 0.932938445,27.0232794 C0.956010221,27.0592714 0.980004868,27.0934176 1.00584526,27.1275639 C1.02522555,27.1515585 1.04368297,27.1773989 1.06398613,27.2013935 C1.09167227,27.2327712 1.12028127,27.262303 1.14981314,27.2955264 C1.17196205,27.3185982 1.19503382,27.3398242 1.2181056,27.3619731 C1.24948322,27.3896592 1.2817837,27.4164225 1.31500706,27.4431858 C1.34084745,27.4616432 1.36668784,27.4837921 1.3934511,27.5013266 C1.40360268,27.5096325 1.41190852,27.5179383 1.42113723,27.5225527 L19.7041356,39.7109106 C19.9920714,39.9037907 20.324305,39.9988464 20.6565386,39.9988464 C20.9887721,39.9988464 21.3219286,39.9037907 21.6098644,39.7109106 L39.8919399,27.5225527 C39.9030144,27.5160926 39.9113202,27.505941 39.9205489,27.5013266 C39.9473122,27.4828692 39.9731526,27.4616432 39.9980701,27.4431858 C40.0312934,27.4164225 40.0645168,27.3896592 40.0949715,27.3619731 C40.1189662,27.3398242 40.1411151,27.3185982 40.1641869,27.2955264 C40.1927959,27.2641488 40.2214049,27.233694 40.249091,27.2013935 C40.2693942,27.1773989 40.2896973,27.1515585 40.3081547,27.1275639 C40.3330723,27.0934176 40.3579898,27.0592714 40.3801387,27.0232794 C40.3976732,26.9965162 40.413362,26.9706758 40.4299737,26.9439125 C40.4502769,26.9060748 40.4696572,26.8682371 40.4881146,26.8294765 C40.5019577,26.8008675 40.513955,26.7731814 40.5268752,26.7454952 C40.5434869,26.703966 40.5564071,26.6624368 40.5702501,26.618139 C40.5794788,26.5904529 40.5896304,26.5636896 40.5970134,26.5341578 C40.6099336,26.4880142 40.6182394,26.4400249 40.6274681,26.3911128 C40.6311596,26.368041 40.6376197,26.3412777 40.6413112,26.3182059 C40.6505399,26.2443763 40.657,26.1687008 40.657,26.0939483 L40.657,13.9055903 C40.657,13.828992 40.6505399,13.7551623 40.6413112,13.6804098 C40.6385426,13.6582608 40.6330054,13.6333433 40.6293139,13.6075029 L40.6293139,13.6075029 Z" id="Fill-1"></path>
        </g>
    </g>
</svg>