<svg width="40" height="40" viewBox="0 0 40 40" fill="none" xmlns="http://www.w3.org/2000/svg">
<path d="M38.8383 3.51261C39.4795 2.87267 39.4794 1.83376 38.8382 1.1939V1.1939C38.1988 0.555901 37.1635 0.555977 36.5242 1.19407L20 17.6868L3.47572 1.19408C2.8364 0.555987 1.80118 0.555919 1.16178 1.19393V1.19393C0.520529 1.83379 0.52046 2.87266 1.16162 3.5126L17.6812 20.0007L1.16171 36.4874C0.520509 37.1274 0.520566 38.1663 1.16184 38.8061V38.8061C1.80122 39.4441 2.83638 39.444 3.47568 38.806L20 22.3144L36.5243 38.806C37.1636 39.4441 38.1987 39.4441 38.8381 38.8062V38.8062C39.4794 38.1663 39.4794 37.1274 38.8382 36.4874L22.3176 20.0007L38.8383 3.51261Z" fill="#333333"/>
</svg>
