<svg width="40" height="40" viewBox="0 0 40 40" fill="none" xmlns="http://www.w3.org/2000/svg">
<g clip-path="url(#clip0)">
<path fill-rule="evenodd" clip-rule="evenodd" d="M29.171 17.9321L21.7188 12.9495V4.93067L35.1872 13.9102L29.171 17.9321ZM32.2626 20.0012L36.5632 17.1246V22.8759L32.2626 20.0012ZM21.7179 27.0528L29.1701 22.0684L35.1863 26.0921L21.7179 35.0698V27.0528ZM10.829 22.0684L18.2812 27.0528V35.0698L4.8137 26.0921L10.829 22.0684ZM7.73735 20.0012L3.43677 22.8768V17.1246L7.73735 20.0012ZM18.2812 12.9495L10.829 17.9339L4.8137 13.9102L18.2812 4.93067V12.9495ZM19.9995 24.0664L13.9206 20.0012L19.9995 15.9359L26.0794 20.0012L19.9995 24.0664ZM39.9723 13.6075C39.9631 13.5595 39.9539 13.5115 39.9419 13.4635C39.9345 13.4358 39.9234 13.4091 39.9151 13.3796C39.9013 13.3371 39.8883 13.2965 39.8717 13.255C39.8588 13.2254 39.8468 13.1977 39.833 13.1719C39.8136 13.1322 39.7951 13.0944 39.7748 13.0565C39.7582 13.0298 39.7425 13.003 39.725 12.9772C39.7028 12.9412 39.6779 12.908 39.653 12.8738C39.6336 12.8489 39.6142 12.824 39.5939 12.7991C39.5672 12.7668 39.5376 12.7372 39.509 12.7068C39.486 12.6837 39.4638 12.6606 39.4398 12.6394C39.4094 12.6099 39.3761 12.5831 39.3429 12.5573C39.318 12.537 39.2922 12.5176 39.2654 12.4982C39.2562 12.4908 39.2469 12.4834 39.2368 12.4788L20.9547 0.288628C20.377 -0.0962093 19.6258 -0.0962093 19.049 0.288628L0.764137 12.4761C0.753986 12.4834 0.74568 12.4908 0.736451 12.4964C0.709688 12.5157 0.683847 12.5351 0.658007 12.5564C0.624784 12.5803 0.592483 12.608 0.561106 12.6376C0.538034 12.6579 0.514962 12.6809 0.492813 12.704C0.463281 12.7335 0.435595 12.764 0.406986 12.7981C0.386683 12.8212 0.367303 12.8461 0.348845 12.872C0.323005 12.9061 0.29901 12.9403 0.275938 12.9763C0.259327 13.0021 0.242715 13.0289 0.227026 13.0556C0.2058 13.0935 0.18642 13.1313 0.168885 13.1691C0.155042 13.1968 0.143045 13.2245 0.130125 13.2531C0.113513 13.2937 0.0996701 13.3362 0.085827 13.3777C0.0765983 13.4072 0.0664467 13.4349 0.0599866 13.4626C0.0470664 13.5106 0.0387606 13.5577 0.0295319 13.6066C0.0249175 13.6306 0.0193803 13.6555 0.0156888 13.6804C0.0055372 13.7552 0 13.829 0 13.9056V26.0939C0 26.1687 0.0055372 26.2444 0.0156888 26.3182C0.0193803 26.3413 0.0249175 26.368 0.0295319 26.3911C0.0387606 26.4409 0.0479893 26.488 0.0599866 26.5342C0.0673696 26.5637 0.0775212 26.5905 0.085827 26.6181C0.0996701 26.6624 0.113513 26.704 0.130125 26.7455C0.143045 26.7732 0.155042 26.8009 0.168885 26.8295C0.187343 26.8682 0.2058 26.9061 0.227026 26.9439C0.242715 26.9707 0.259327 26.9965 0.275938 27.0233C0.29901 27.0593 0.323005 27.0934 0.348845 27.1276C0.368226 27.1516 0.386683 27.1774 0.406986 27.2014C0.434672 27.2328 0.463281 27.2623 0.492813 27.2955C0.514962 27.3186 0.538034 27.3398 0.561106 27.362C0.592483 27.3897 0.624784 27.4164 0.658007 27.4432C0.683847 27.4616 0.709688 27.4838 0.736451 27.5013C0.746603 27.5096 0.754908 27.5179 0.764137 27.5226L19.0471 39.7109C19.3351 39.9038 19.6673 39.9988 19.9995 39.9988C20.3318 39.9988 20.6649 39.9038 20.9529 39.7109L39.2349 27.5226C39.246 27.5161 39.2543 27.5059 39.2635 27.5013C39.2903 27.4829 39.3162 27.4616 39.3411 27.4432C39.3743 27.4164 39.4075 27.3897 39.438 27.362C39.462 27.3398 39.4841 27.3186 39.5072 27.2955C39.5358 27.2641 39.5644 27.2337 39.5921 27.2014C39.6124 27.1774 39.6327 27.1516 39.6512 27.1276C39.6761 27.0934 39.701 27.0593 39.7231 27.0233C39.7407 26.9965 39.7564 26.9707 39.773 26.9439C39.7933 26.9061 39.8127 26.8682 39.8311 26.8295C39.845 26.8009 39.857 26.7732 39.8699 26.7455C39.8865 26.704 39.8994 26.6624 39.9132 26.6181C39.9225 26.5905 39.9326 26.5637 39.94 26.5342C39.9529 26.488 39.9612 26.44 39.9705 26.3911C39.9742 26.368 39.9806 26.3413 39.9843 26.3182C39.9935 26.2444 40 26.1687 40 26.0939V13.9056C40 13.829 39.9935 13.7552 39.9843 13.6804C39.9815 13.6583 39.976 13.6333 39.9723 13.6075Z" fill="#333333"/>
</g>
<defs>
<clipPath id="clip0">
<rect width="40" height="39.9988" fill="white"/>
</clipPath>
</defs>
</svg>
