<svg xmlns="http://www.w3.org/2000/svg" viewBox="0 0 24 24"><defs><style>.cls-1{fill:#555;}</style></defs><title>Asset 2</title><g id="Layer_2" data-name="Layer 2"><g id="Default"><path class="cls-1" d="M14,24H10V20.62a10.56,10.56,0,0,1,3-7.44A10.25,10.25,0,0,1,20.16,10H24v4H20.16a6.12,6.12,0,0,0-4.43,2A6.43,6.43,0,0,0,14,20.62Z"/><path class="cls-1" d="M3.36,14H0V10H3.36A6.46,6.46,0,0,0,8,8.26a6.15,6.15,0,0,0,2-4.44V0h4V3.82A10.28,10.28,0,0,1,10.81,11,10.59,10.59,0,0,1,3.36,14Z"/></g></g></svg>