<?xml version="1.0" encoding="UTF-8"?>
<svg width="40px" height="40px" viewBox="0 0 40 40" version="1.1" xmlns="http://www.w3.org/2000/svg" xmlns:xlink="http://www.w3.org/1999/xlink">
    <!-- Generator: Sketch 45.1 (43504) - http://www.bohemiancoding.com/sketch -->
    <title>icon_instagram</title>
    <desc>Created with Sketch.</desc>
    <defs></defs>
    <g id="Symbols" stroke="none" stroke-width="1" fill="none" fill-rule="evenodd">
        <g id="icon_instagram" fill-rule="nonzero" fill="#4A4A4A">
            <path d="M20,3.605 C25.34,3.605 25.9733333,3.625 28.0833333,3.72166667 C33.5033333,3.96833333 36.035,6.54 36.2816667,11.92 C36.3783333,14.0283333 36.3966667,14.6616667 36.3966667,20.0016667 C36.3966667,25.3433333 36.3766667,25.975 36.2816667,28.0833333 C36.0333333,33.4583333 33.5083333,36.035 28.0833333,36.2816667 C25.9733333,36.3783333 25.3433333,36.3983333 20,36.3983333 C14.66,36.3983333 14.0266667,36.3783333 11.9183333,36.2816667 C6.485,36.0333333 3.96666667,33.45 3.72,28.0816667 C3.62333333,25.9733333 3.60333333,25.3416667 3.60333333,20 C3.60333333,14.66 3.625,14.0283333 3.72,11.9183333 C3.96833333,6.54 6.49333333,3.96666667 11.9183333,3.72 C14.0283333,3.625 14.66,3.605 20,3.605 L20,3.605 Z M20,8.09537622e-16 C14.5683333,8.09537622e-16 13.8883333,0.0233333333 11.755,0.12 C4.49166667,0.453333333 0.455,4.48333333 0.121666667,11.7533333 C0.0233333333,13.8883333 0,14.5683333 0,20 C0,25.4316667 0.0233333333,26.1133333 0.12,28.2466667 C0.453333333,35.51 4.48333333,39.5466667 11.7533333,39.88 C13.8883333,39.9766667 14.5683333,40 20,40 C25.4316667,40 26.1133333,39.9766667 28.2466667,39.88 C35.5033333,39.5466667 39.55,35.5166667 39.8783333,28.2466667 C39.9766667,26.1133333 40,25.4316667 40,20 C40,14.5683333 39.9766667,13.8883333 39.88,11.755 C39.5533333,4.49833333 35.5183333,0.455 28.2483333,0.121666667 C26.1133333,0.0233333333 25.4316667,0 20,8.09537622e-16 Z M20,9.73 C14.3283333,9.73 9.73,14.3283333 9.73,20 C9.73,25.6716667 14.3283333,30.2716667 20,30.2716667 C25.6716667,30.2716667 30.27,25.6733333 30.27,20 C30.27,14.3283333 25.6716667,9.73 20,9.73 Z M20,26.6666667 C16.3183333,26.6666667 13.3333333,23.6833333 13.3333333,20 C13.3333333,16.3183333 16.3183333,13.3333333 20,13.3333333 C23.6816667,13.3333333 26.6666667,16.3183333 26.6666667,20 C26.6666667,23.6833333 23.6816667,26.6666667 20,26.6666667 Z M30.6766667,6.925 C29.35,6.925 28.275,8 28.275,9.325 C28.275,10.65 29.35,11.725 30.6766667,11.725 C32.0016667,11.725 33.075,10.65 33.075,9.325 C33.075,8 32.0016667,6.925 30.6766667,6.925 Z" id="Shape"></path>
        </g>
    </g>
</svg>