<?xml version="1.0" encoding="UTF-8"?>
<svg width="40px" height="40px" viewBox="0 0 40 40" version="1.1" xmlns="http://www.w3.org/2000/svg" xmlns:xlink="http://www.w3.org/1999/xlink">
    <!-- Generator: Sketch 45.1 (43504) - http://www.bohemiancoding.com/sketch -->
    <title>icon_info</title>
    <desc>Created with Sketch.</desc>
    <defs></defs>
    <g id="Symbols" stroke="none" stroke-width="1" fill="none" fill-rule="evenodd">
        <g id="icon_info" fill="#4A4A4A">
            <g id="Icon_Time-Copy">
                <path d="M9.96644295,2.68456376 C13.0313199,0.894854586 16.3758389,0 20,0 C23.6252796,0 26.9686801,0.894854586 30.0346756,2.68456376 C33.098434,4.47427293 35.5257271,6.901566 37.3165548,9.96644295 C39.1051454,13.0324385 40,16.3758389 40,20 C40,23.6241611 39.1051454,26.9686801 37.3165548,30.033557 C35.5257271,33.098434 33.098434,35.5257271 30.0346756,37.3154362 C26.9686801,39.1051454 23.6252796,40 20,40 C16.3758389,40 13.0313199,39.1051454 9.96644295,37.3154362 C6.90044743,35.5257271 4.47315436,33.098434 2.68456376,30.033557 C0.894854586,26.9686801 0,23.6241611 0,20 C0,16.3758389 0.894854586,13.0324385 2.68456376,9.96644295 C4.47315436,6.901566 6.90044743,4.47427293 9.96644295,2.68456376 C9.96644295,2.68456376 6.90044743,4.47427293 9.96644295,2.68456376 L9.96644295,2.68456376 L9.96644295,2.68456376 Z M31.438968,8.56233545 C28.2716147,5.39498219 24.4577564,3.81130556 20,3.81130556 C15.5422436,3.81130556 11.7296887,5.39498219 8.56233545,8.56233545 C5.39498219,11.7296887 3.81130556,15.5422436 3.81130556,20 C3.81130556,24.4577564 5.39498219,28.2703113 8.56233545,31.4376646 C11.7296887,34.6050178 15.5422436,36.1886944 20,36.1886944 C24.4577564,36.1886944 28.2716147,34.6050178 31.438968,31.4376646 C34.6050178,28.2703113 36.1886944,24.4577564 36.1886944,20 C36.1886944,15.5422436 34.6050178,11.7296887 31.438968,8.56233545 C31.438968,8.56233545 34.6050178,11.7296887 31.438968,8.56233545 L31.438968,8.56233545 L31.438968,8.56233545 Z" id="Fill-29"></path>
            </g>
            <rect id="Rectangle-3" x="18" y="17" width="4" height="14"></rect>
            <rect id="Rectangle-3-Copy" x="18" y="9" width="4" height="4"></rect>
        </g>
    </g>
</svg>